<svg width="90" height="32" viewBox="0 0 90 32" fill="none" xmlns="http://www.w3.org/2000/svg">
<path d="M12.8206 24.1085C11.9415 23.3048 11.6848 21.6163 12.0511 20.3931C12.6862 21.1642 13.5661 21.4087 14.4776 21.5464C15.8847 21.7593 17.2665 21.6797 18.5736 21.0366C18.7232 20.963 18.8614 20.865 19.0247 20.7659C19.1474 21.1216 19.1793 21.4808 19.1365 21.8465C19.0323 22.737 18.5892 23.4248 17.8844 23.9462C17.6026 24.1548 17.3043 24.3412 17.0132 24.5379C16.119 25.1421 15.8771 25.8509 16.2131 26.8818C16.2211 26.9069 16.2282 26.932 16.2463 26.9933C15.7897 26.789 15.4562 26.4915 15.2021 26.1003C14.9337 25.6874 14.806 25.2307 14.7993 24.7366C14.7959 24.4961 14.7959 24.2534 14.7636 24.0164C14.6846 23.4385 14.4133 23.1797 13.9021 23.1647C13.3775 23.1495 12.9625 23.4737 12.8525 23.9845C12.8441 24.0236 12.8319 24.0623 12.8197 24.1079L12.8206 24.1085Z" fill="white"/>
<path d="M7.80307 20.1889C7.80307 20.1889 10.4063 18.9209 13.0167 18.9209L14.9849 12.8297C15.0586 12.5351 15.2738 12.3349 15.5167 12.3349C15.7595 12.3349 15.9747 12.5351 16.0484 12.8297L18.0166 18.9209C21.1083 18.9209 23.2303 20.1889 23.2303 20.1889C23.2303 20.1889 18.8085 8.14336 18.7999 8.11919C18.673 7.76306 18.4587 7.53369 18.1699 7.53369H12.8639C12.5751 7.53369 12.3695 7.76306 12.2339 8.11919C12.2244 8.14291 7.80307 20.1889 7.80307 20.1889Z" fill="white"/>
<path d="M35.2493 16.3143C35.2493 17.3817 33.9215 18.0192 32.0832 18.0192C30.8866 18.0192 30.4636 17.7227 30.4636 17.1C30.4636 16.4477 30.9888 16.1364 32.1852 16.1364C33.265 16.1364 34.184 16.1512 35.2493 16.2846V16.3143ZM35.2637 14.9949C34.6073 14.8466 33.6151 14.7577 32.4333 14.7577C28.9899 14.7577 27.3705 15.5731 27.3705 17.4706C27.3705 19.4424 28.4793 20.1985 31.0472 20.1985C33.2212 20.1985 34.6947 19.6499 35.2347 18.3008H35.322C35.3074 18.627 35.2928 18.9531 35.2928 19.2052C35.2928 19.9019 35.4096 19.9612 35.9786 19.9612H38.6632C38.5173 19.5461 38.4297 18.375 38.4297 17.3669C38.4297 16.2846 38.4735 15.4693 38.4735 14.3722C38.4735 12.1337 37.1314 10.7104 32.9293 10.7104C31.1202 10.7104 29.1067 11.0218 27.5748 11.4814C27.7206 12.0892 27.9249 13.3196 28.0271 14.1202C29.3548 13.4975 31.2369 13.2307 32.696 13.2307C34.7093 13.2307 35.2637 13.6903 35.2637 14.6242V14.9949Z" fill="white"/>
<path d="M42.6298 16.9368C42.2651 16.9812 41.7689 16.9812 41.2583 16.9812C40.7185 16.9812 40.2225 16.9664 39.8868 16.9219C39.8868 17.0405 39.8722 17.174 39.8722 17.2926C39.8722 19.1457 41.0832 20.2279 45.3436 20.2279C49.3558 20.2279 50.6543 19.1605 50.6543 17.2777C50.6543 15.4987 49.7936 14.6241 45.9856 14.4313C43.0237 14.2979 42.7612 13.9718 42.7612 13.6011C42.7612 13.1712 43.1404 12.9488 45.1247 12.9488C47.182 12.9488 47.7364 13.2305 47.7364 13.8235V13.9569C48.0281 13.9421 48.5535 13.9273 49.0933 13.9273C49.6039 13.9273 50.1583 13.9421 50.4794 13.9718C50.4794 13.8383 50.494 13.7198 50.494 13.616C50.494 11.4367 48.6846 10.7251 45.1831 10.7251C41.2437 10.7251 39.916 11.6887 39.916 13.5715C39.916 15.2615 40.9812 16.3141 44.76 16.4772C47.5466 16.5661 47.8531 16.8775 47.8531 17.3074C47.8531 17.767 47.4007 17.9745 45.4458 17.9745C43.1988 17.9745 42.6298 17.6632 42.6298 17.0257V16.9368Z" fill="white"/>
<path d="M55.4699 9.12402C54.4049 10.1173 52.4936 11.1106 51.4286 11.3774C51.4432 11.9259 51.4432 12.934 51.4432 13.4826L52.4206 13.4974C52.4061 14.55 52.3915 15.8249 52.3915 16.6699C52.3915 18.6417 53.4273 20.1242 56.6517 20.1242C58.0086 20.1242 58.9133 19.9759 60.0367 19.7387C59.9199 19.0123 59.7886 17.9004 59.7448 17.0554C59.0736 17.2778 58.2275 17.3964 57.2937 17.3964C55.9951 17.3964 55.4699 17.0406 55.4699 16.0176C55.4699 15.1282 55.4699 14.2979 55.4845 13.5271C57.1477 13.5419 58.8111 13.5715 59.7886 13.6012C59.774 12.8303 59.8032 11.7184 59.8469 10.9771C58.4317 11.0068 56.8414 11.0216 55.5283 11.0216C55.5429 10.3693 55.5575 9.74669 55.5721 9.12402H55.4699Z" fill="white"/>
<path d="M64.1841 13.0379C64.1987 12.267 64.2133 11.6147 64.2279 10.9772H61.2951C61.3389 12.2522 61.3389 13.5568 61.3389 15.4692C61.3389 17.3816 61.3243 18.7011 61.2951 19.9612H64.6509C64.5925 19.0717 64.5779 17.5744 64.5779 16.2994C64.5779 14.2832 65.395 13.705 67.248 13.705C68.1089 13.705 68.7216 13.8088 69.2614 14.0015C69.276 13.2455 69.422 11.7778 69.5094 11.1255C68.955 10.9624 68.3422 10.8586 67.598 10.8586C66.0078 10.8438 64.8406 11.4961 64.3008 13.0527L64.1841 13.0379Z" fill="white"/>
<path d="M78.7927 15.4098C78.7927 17.0257 77.6255 17.7818 75.7871 17.7818C73.9634 17.7818 72.7962 17.0702 72.7962 15.4098C72.7962 13.7494 73.978 13.1268 75.7871 13.1268C77.6109 13.1268 78.7927 13.7939 78.7927 15.4098ZM81.8419 15.3357C81.8419 12.1187 79.3325 10.6807 75.7871 10.6807C72.2272 10.6807 69.8051 12.1187 69.8051 15.3357C69.8051 18.5379 72.0667 20.2577 75.7725 20.2577C79.5076 20.2577 81.8419 18.5379 81.8419 15.3357Z" fill="white"/>
</svg>
