<svg width="145" height="210" viewBox="0 0 145 210" fill="none" xmlns="http://www.w3.org/2000/svg">
<path d="M2.05566 139.526C1.19651 138.667 1.19651 137.274 2.05567 136.415L70.8147 67.656C71.6739 66.7969 73.0668 66.7969 73.926 67.656L142.685 136.415C143.544 137.274 143.544 138.667 142.685 139.526L73.926 208.285C73.0668 209.145 71.6739 209.145 70.8147 208.285L2.05566 139.526Z" fill="#3B4E57"/>
<path d="M2.05566 106.526C1.19651 105.667 1.19651 104.274 2.05567 103.415L70.8147 34.656C71.6739 33.7969 73.0668 33.7969 73.926 34.656L142.685 103.415C143.544 104.274 143.544 105.667 142.685 106.526L73.926 175.285C73.0668 176.145 71.6739 176.145 70.8147 175.285L2.05566 106.526Z" fill="#85AFC3" fill-opacity="0.6"/>
<path d="M2.05566 73.5263C1.19651 72.6672 1.19651 71.2742 2.05567 70.4151L70.8147 1.65601C71.6739 0.796852 73.0668 0.796853 73.926 1.65601L142.685 70.4151C143.544 71.2742 143.544 72.6672 142.685 73.5263L73.926 142.285C73.0668 143.145 71.6739 143.145 70.8147 142.285L2.05566 73.5263Z" fill="#90CBEC" fill-opacity="0.6"/>
</svg>
