<svg width="49" height="18" viewBox="0 0 49 18" fill="none" xmlns="http://www.w3.org/2000/svg">
<g clip-path="url(#clip0_270_61)">
<path d="M0.559998 0.447121V13.7532L2.27211 13.7585V7.42196H6.40013V5.74709H2.27211V2.12118H7.64827V0.446289L0.559998 0.447121Z" fill="white"/>
<path d="M10.7299 3.14823C11.3466 3.14823 11.8465 2.64831 11.8465 2.03163C11.8465 1.41495 11.3466 0.915039 10.7299 0.915039C10.1133 0.915039 9.61334 1.41495 9.61334 2.03163C9.61334 2.64831 10.1133 3.14823 10.7299 3.14823Z" fill="white"/>
<path d="M9.85901 4.82324V13.756H11.5711V4.82324H9.85901Z" fill="white"/>
<path fill-rule="evenodd" clip-rule="evenodd" d="M17.9213 4.5625C15.6477 4.5625 14.0611 6.48535 14.0611 8.76832C14.0611 11.0513 15.6477 12.9742 17.9213 12.9742C18.9622 12.9742 19.82 12.5712 20.4443 11.9152V13.1045C20.4443 14.5844 19.2818 15.8215 17.7645 15.8215C17.2191 15.8215 16.6773 15.6101 16.2456 15.3125L15.3877 16.7983C16.0728 17.24 16.8887 17.4964 17.7645 17.4964C20.1901 17.4964 22.1564 15.53 22.1564 13.1045V4.82304H20.4443V5.6215C19.82 4.96547 18.9622 4.5625 17.9213 4.5625ZM15.7732 8.76832C15.7732 7.35123 16.8572 6.23739 18.1074 6.23739C19.3577 6.23739 20.4416 7.35123 20.4416 8.76832C20.4416 10.1854 19.3577 11.2993 18.1074 11.2993C16.8572 11.2993 15.7732 10.1854 15.7732 8.76832Z" fill="white"/>
<path d="M28.3256 6.23739C27.3132 6.23739 26.4925 7.09528 26.4925 8.10766V13.7558H24.7804V4.82304H26.4925V5.64133C26.9942 4.99283 27.7333 4.5625 28.6978 4.5625C29.8975 4.5625 30.8182 5.15837 31.3515 6.07028C31.9445 5.18945 32.9118 4.5625 34.0761 4.5625C36.0247 4.5625 37.2376 6.13466 37.2491 8.07974C37.2491 8.08561 37.2491 8.09149 37.2491 8.09743V8.09776V8.09802V8.09835C37.2491 8.10145 37.2491 8.10456 37.2491 8.10766V13.7558H35.537V8.10766C35.537 7.09528 34.7163 6.23739 33.7039 6.23739C32.6914 6.23739 31.8708 7.09528 31.8708 8.10766V13.7558H30.1587V8.10766C30.1587 7.09528 29.338 6.23739 28.3256 6.23739Z" fill="white"/>
<path fill-rule="evenodd" clip-rule="evenodd" d="M46.3679 5.83565C45.6062 5.04915 44.5631 4.5625 43.3531 4.5625C40.806 4.5625 38.9984 6.71904 38.9984 9.28939C38.9984 11.8598 40.806 14.0163 43.3531 14.0163C44.5631 14.0163 45.6062 13.5297 46.3679 12.7432V13.7558H48.08V4.82304H46.3679V5.83565ZM40.7105 9.28939C40.7105 7.58414 42.0162 6.23739 43.5392 6.23739C45.0622 6.23739 46.3679 7.58414 46.3679 9.28939C46.3679 10.9947 45.0622 12.3414 43.5392 12.3414C42.0162 12.3414 40.7105 10.9947 40.7105 9.28939Z" fill="white"/>
</g>
<defs>
<clipPath id="clip0_270_61">
<rect width="47.52" height="17.226" fill="white" transform="translate(0.559998 0.446289)"/>
</clipPath>
</defs>
</svg>
