<svg width="20" height="30" viewBox="0 0 20 30" fill="none" xmlns="http://www.w3.org/2000/svg">
<g clip-path="url(#clip0_270_54)">
<path d="M10.024 14.96C10.024 12.3623 12.1298 10.2563 14.7276 10.2563C17.3253 10.2563 19.4312 12.3623 19.4312 14.96C19.4312 17.5577 17.3253 19.6636 14.7276 19.6636C12.1298 19.6636 10.024 17.5577 10.024 14.96Z" fill="#1ABCFE"/>
<path d="M0.61673 24.3672C0.61673 21.7695 2.72261 19.6636 5.32035 19.6636H10.024V24.3672C10.024 26.965 7.91811 29.0708 5.32035 29.0708C2.72261 29.0708 0.61673 26.965 0.61673 24.3672Z" fill="#0ACF83"/>
<path d="M10.024 0.849121V10.2563H14.7276C17.3254 10.2563 19.4312 8.15047 19.4312 5.55274C19.4312 2.95501 17.3254 0.849121 14.7276 0.849121H10.024Z" fill="#FF7262"/>
<path d="M0.61673 5.55274C0.61673 8.15048 2.72261 10.2563 5.32035 10.2563H10.024V0.849121H5.32035C2.72261 0.849121 0.61673 2.955 0.61673 5.55274Z" fill="#F24E1E"/>
<path d="M0.61673 14.96C0.61673 17.5577 2.72261 19.6636 5.32035 19.6636H10.024V10.2563H5.32035C2.72261 10.2563 0.61673 12.3623 0.61673 14.96Z" fill="#A259FF"/>
</g>
<defs>
<clipPath id="clip0_270_54">
<rect width="19.008" height="28.512" fill="white" transform="translate(0.519989 0.704102)"/>
</clipPath>
</defs>
</svg>
