<svg width="18" height="26" viewBox="0 0 18 26" fill="none" xmlns="http://www.w3.org/2000/svg">
<g clip-path="url(#clip0_270_54)">
<path d="M8.64001 12.9601C8.64001 10.5986 10.5544 8.68408 12.916 8.68408C15.2776 8.68408 17.1921 10.5986 17.1921 12.9601C17.1921 15.3217 15.2776 17.2361 12.916 17.2361C10.5544 17.2361 8.64001 15.3217 8.64001 12.9601Z" fill="#1ABCFE"/>
<path d="M0.0879517 21.5119C0.0879517 19.1503 2.00239 17.2358 4.36397 17.2358H8.63999V21.5119C8.63999 23.8735 6.72557 25.7879 4.36397 25.7879C2.00239 25.7879 0.0879517 23.8735 0.0879517 21.5119Z" fill="#0ACF83"/>
<path d="M8.64001 0.131836V8.68385H12.916C15.2776 8.68385 17.1921 6.76943 17.1921 4.40785C17.1921 2.04628 15.2776 0.131836 12.916 0.131836H8.64001Z" fill="#FF7262"/>
<path d="M0.0879517 4.40786C0.0879517 6.76943 2.00239 8.68385 4.36397 8.68385H8.63999V0.131836H4.36397C2.00239 0.131836 0.0879517 2.04627 0.0879517 4.40786Z" fill="#F24E1E"/>
<path d="M0.0879517 12.9601C0.0879517 15.3217 2.00239 17.2361 4.36397 17.2361H8.63999V8.68408H4.36397C2.00239 8.68408 0.0879517 10.5986 0.0879517 12.9601Z" fill="#A259FF"/>
</g>
<defs>
<clipPath id="clip0_270_54">
<rect width="17.28" height="25.92" fill="white"/>
</clipPath>
</defs>
</svg>
