<svg width="375" height="261" viewBox="0 0 375 261" fill="none" xmlns="http://www.w3.org/2000/svg">
<path d="M0 16C0 7.16344 7.16344 0 16 0H359C367.837 0 375 7.16344 375 16V245C375 253.837 367.837 261 359 261H16C7.16345 261 0 253.837 0 245V16Z" fill="#A3A3A3"/>
<path d="M0 16C0 7.16344 7.16344 0 16 0H359C367.837 0 375 7.16344 375 16V245C375 253.837 367.837 261 359 261H16C7.16345 261 0 253.837 0 245V16Z" fill="url(#paint0_linear_229_55)" fill-opacity="0.2"/>
<path d="M0 16C0 7.16344 7.16344 0 16 0H359C367.837 0 375 7.16344 375 16V245C375 253.837 367.837 261 359 261H16C7.16345 261 0 253.837 0 245V16Z" fill="url(#paint1_linear_229_55)" fill-opacity="0.2"/>
<path d="M0 16C0 7.16344 7.16344 0 16 0H359C367.837 0 375 7.16344 375 16V245C375 253.837 367.837 261 359 261H16C7.16345 261 0 253.837 0 245V16Z" fill="url(#paint2_linear_229_55)" fill-opacity="0.2"/>
<path d="M0 16C0 7.16343 7.16344 0 16 0H359C367.837 0 375 7.16345 375 16V44.8H0V16Z" fill="#0D1017"/>
<circle cx="22.4" cy="22.3999" r="4" fill="#EF4444"/>
<circle cx="36.8" cy="22.3999" r="4" fill="#EAB308"/>
<circle cx="51.2" cy="22.3999" r="4" fill="#22C55E"/>
<defs>
<linearGradient id="paint0_linear_229_55" x1="1.17938e-06" y1="45" x2="187.5" y2="261" gradientUnits="userSpaceOnUse">
<stop offset="0.69" stop-opacity="0"/>
<stop offset="1"/>
</linearGradient>
<linearGradient id="paint1_linear_229_55" x1="36.589" y1="-3.61031e-06" x2="263.152" y2="261" gradientUnits="userSpaceOnUse">
<stop offset="0.65" stop-opacity="0"/>
<stop offset="1"/>
</linearGradient>
<linearGradient id="paint2_linear_229_55" x1="1.17938e-06" y1="45" x2="187.5" y2="261" gradientUnits="userSpaceOnUse">
<stop stop-opacity="0"/>
<stop offset="1"/>
</linearGradient>
</defs>
</svg>
