<svg width="44" height="16" viewBox="0 0 44 16" fill="none" xmlns="http://www.w3.org/2000/svg">
<g clip-path="url(#clip0_270_61)">
<path d="M0.399994 0.220971V12.3174L1.95646 12.3222V6.56174H5.7092V5.03913H1.95646V1.74284H6.84387V0.220215L0.399994 0.220971Z" fill="white"/>
<path d="M9.64539 2.67665C10.206 2.67665 10.6605 2.22218 10.6605 1.66157C10.6605 1.10095 10.206 0.646484 9.64539 0.646484C9.08481 0.646484 8.63031 1.10095 8.63031 1.66157C8.63031 2.22218 9.08481 2.67665 9.64539 2.67665Z" fill="white"/>
<path d="M8.85364 4.19922V12.3199H10.4101V4.19922H8.85364Z" fill="white"/>
<path fill-rule="evenodd" clip-rule="evenodd" d="M16.183 3.9624C14.1161 3.9624 12.6737 5.71045 12.6737 7.78587C12.6737 9.86133 14.1161 11.6094 16.183 11.6094C17.1292 11.6094 17.9091 11.243 18.4766 10.6467V11.7278C18.4766 13.0733 17.4198 14.1978 16.0404 14.1978C15.5446 14.1978 15.052 14.0057 14.6596 13.7352L13.8797 15.0859C14.5026 15.4874 15.2443 15.7205 16.0404 15.7205C18.2455 15.7205 20.0331 13.9329 20.0331 11.7278V4.19925H18.4766V4.92513C17.9091 4.32874 17.1292 3.9624 16.183 3.9624ZM14.2302 7.78587C14.2302 6.49761 15.2156 5.48503 16.3522 5.48503C17.4888 5.48503 18.4742 6.49761 18.4742 7.78587C18.4742 9.07413 17.4888 10.0868 16.3522 10.0868C15.2156 10.0868 14.2302 9.07413 14.2302 7.78587Z" fill="white"/>
<path d="M25.6414 5.48503C24.7211 5.48503 23.975 6.26493 23.975 7.18527V12.32H22.4185V4.19925H23.975V4.94316C24.4311 4.35361 25.1029 3.9624 25.9798 3.9624C27.0704 3.9624 27.9075 4.5041 28.3923 5.33311C28.9314 4.53236 29.8107 3.9624 30.8691 3.9624C32.6406 3.9624 33.7432 5.39164 33.7537 7.15989C33.7537 7.16523 33.7537 7.17057 33.7537 7.17597V7.17627V7.17651V7.17681C33.7537 7.17963 33.7537 7.18245 33.7537 7.18527V12.32H32.1972V7.18527C32.1972 6.26493 31.4511 5.48503 30.5308 5.48503C29.6104 5.48503 28.8643 6.26493 28.8643 7.18527V12.32H27.3079V7.18527C27.3079 6.26493 26.5618 5.48503 25.6414 5.48503Z" fill="white"/>
<path fill-rule="evenodd" clip-rule="evenodd" d="M42.0435 5.11981C41.3511 4.40481 40.4028 3.9624 39.3028 3.9624C36.9873 3.9624 35.344 5.9229 35.344 8.25957C35.344 10.5963 36.9873 12.5568 39.3028 12.5568C40.4028 12.5568 41.3511 12.1144 42.0435 11.3994V12.32H43.6V4.19925H42.0435V5.11981ZM36.9005 8.25957C36.9005 6.70935 38.0874 5.48503 39.472 5.48503C40.8565 5.48503 42.0435 6.70935 42.0435 8.25957C42.0435 9.80985 40.8565 11.0342 39.472 11.0342C38.0874 11.0342 36.9005 9.80985 36.9005 8.25957Z" fill="white"/>
</g>
<defs>
<clipPath id="clip0_270_61">
<rect width="43.2" height="15.66" fill="white" transform="translate(0.399994 0.220215)"/>
</clipPath>
</defs>
</svg>
