<svg width="300" height="209" viewBox="0 0 300 209" fill="none" xmlns="http://www.w3.org/2000/svg">
<g clip-path="url(#clip0_229_55)">
<rect width="300" height="174" transform="translate(0 35)" fill="#E2E8F0"/>
<rect x="18" y="44" width="230.4" height="8.1" rx="4.05" fill="#2B2B32"/>
<rect x="18" y="142.1" width="230.4" height="8.1" rx="4.05" fill="#2B2B32"/>
<rect x="18" y="125" width="210.6" height="8.1" rx="4.05" fill="#2B2B32"/>
<rect x="18" y="61.1001" width="110.7" height="8.1" rx="4.05" fill="#544048"/>
<rect x="18" y="78.2002" width="127.8" height="8.1" rx="4.05" fill="#544048"/>
<rect x="18" y="159.2" width="117" height="8.1" rx="4.05" fill="#544048"/>
<rect x="18" y="176.3" width="170.1" height="8.1" rx="4.05" fill="#544048"/>
<rect x="18" y="95.2998" width="127.8" height="8.1" rx="4.05" fill="#404F54"/>
<rect x="18" y="193.4" width="127.8" height="8.1" rx="4.05" fill="#404F54"/>
<rect width="300" height="174" transform="translate(0 35)" fill="url(#paint0_linear_229_55)" fill-opacity="0.4"/>
<rect width="300" height="35" fill="#151313"/>
<circle cx="18.24" cy="18.2402" r="3.52" fill="#EF4444"/>
<circle cx="30.912" cy="18.2402" r="3.52" fill="#EAB308"/>
<circle cx="43.5838" cy="18.2402" r="3.52" fill="#22C55E"/>
</g>
<defs>
<linearGradient id="paint0_linear_229_55" x1="300" y1="174" x2="-6.85215e-06" y2="1.18141e-05" gradientUnits="userSpaceOnUse">
<stop/>
<stop offset="1" stop-color="white"/>
</linearGradient>
<clipPath id="clip0_229_55">
<path d="M0 12C0 5.3726 5.37258 0 12 0H288C294.627 0 300 5.37258 300 12V196.8C300 203.427 294.627 208.8 288 208.8H12C5.37259 208.8 0 203.427 0 196.8V12Z" fill="white"/>
</clipPath>
</defs>
</svg>
