<svg width="1600" height="1200" viewBox="0 0 1600 1200" fill="none" xmlns="http://www.w3.org/2000/svg">
<path d="M1002.97 334.01C1004.62 334.01 1005.96 332.671 1005.96 331.02C1005.96 329.369 1004.62 328.03 1002.97 328.03C1001.32 328.03 999.98 329.369 999.98 331.02C999.98 332.671 1001.32 334.01 1002.97 334.01Z" fill="white"/>
<path d="M1038.17 353.12C1038.64 353.227 1038.97 353.373 1039.17 353.56C1039.6 353.967 1039.54 354.267 1038.99 354.46L1026.15 359.07C1025.92 359.151 1025.71 359.281 1025.54 359.45C1025.37 359.62 1025.24 359.825 1025.16 360.05L1020.38 373.05C1020.12 373.763 1019.86 373.763 1019.6 373.05L1014.84 359.94C1014.77 359.755 1014.66 359.586 1014.52 359.447C1014.38 359.307 1014.21 359.199 1014.02 359.13L1001.2 354.49C1000.23 354.143 1000.24 353.797 1001.21 353.45L1013.3 349.14C1014.17 348.827 1014.77 348.233 1015.09 347.36L1018.77 337.24L1019.48 335.22C1019.83 334.233 1020.18 334.23 1020.53 335.21L1025.06 347.79C1025.14 348 1025.26 348.191 1025.42 348.35C1025.58 348.509 1025.77 348.631 1025.98 348.71L1038.17 353.12Z" fill="white"/>
<path d="M799.99 364.02L799.84 364.22C799.773 364.313 799.74 364.417 799.74 364.53L800.24 400.98C773.87 401.56 747.38 401.16 721 401.06C719.347 401.053 717.69 401.093 716.03 401.18C714.597 401.253 713.27 401.683 712.05 402.47C710.85 403.237 709.65 404.033 708.45 404.86C708.301 404.96 708.121 405.006 707.942 404.987C707.763 404.969 707.596 404.889 707.47 404.76C705.62 402.88 703.66 401.14 700.83 401.14C678.597 401.16 656.347 401.14 634.08 401.08C634.02 401.08 633.96 401.092 633.904 401.115C633.848 401.138 633.797 401.172 633.755 401.215C633.712 401.257 633.678 401.308 633.655 401.364C633.632 401.42 633.62 401.48 633.62 401.54C633.68 443.147 633.683 484.803 633.63 526.51C633.617 535.377 633.72 542.04 633.94 546.5C635.473 577.52 641.797 607.28 652.91 635.78C670.35 680.507 697.263 718.503 733.65 749.77C737.49 753.07 742.717 757.207 749.33 762.18C766.077 774.78 782.867 787.323 799.7 799.81C800 800.03 800.21 800.327 800.33 800.7C799.89 803.16 799.87 805.557 800.27 807.89C796.04 808.4 793.3 811.07 793.6 815.45C793.827 818.87 795.98 820.803 800.06 821.25L799.92 835.99C798.507 834.87 797.297 833.937 796.29 833.19C769.623 813.343 742.95 793.507 716.27 773.68C706.897 766.713 697.133 758.327 686.98 748.52C671.96 734 658 716.493 645.1 696C641.3 689.64 638.627 685.03 637.08 682.17C614.573 640.723 602.917 596.493 602.11 549.48C601.957 540.653 601.88 531.803 601.88 522.93C601.88 518.17 603.09 514.57 605.75 510.84C605.95 510.567 605.973 510.28 605.82 509.98C604.37 507.13 601.9 504.83 601.9 501C601.96 455.433 602.01 409.933 602.05 364.5C602.05 364.375 602.101 364.256 602.191 364.168C602.281 364.08 602.403 364.03 602.53 364.03L799.99 364.02ZM629.94 383.5C629.94 381.768 629.252 380.107 628.027 378.883C626.803 377.658 625.142 376.97 623.41 376.97C621.678 376.97 620.017 377.658 618.793 378.883C617.568 380.107 616.88 381.768 616.88 383.5C616.88 385.232 617.568 386.893 618.793 388.117C620.017 389.342 621.678 390.03 623.41 390.03C625.142 390.03 626.803 389.342 628.027 388.117C629.252 386.893 629.94 385.232 629.94 383.5ZM650.35 383.5C650.35 381.771 649.663 380.112 648.44 378.89C647.218 377.667 645.559 376.98 643.83 376.98C642.974 376.98 642.126 377.149 641.335 377.476C640.544 377.804 639.825 378.284 639.22 378.89C638.614 379.495 638.134 380.214 637.806 381.005C637.479 381.796 637.31 382.644 637.31 383.5C637.31 384.356 637.479 385.204 637.806 385.995C638.134 386.786 638.614 387.505 639.22 388.11C639.825 388.716 640.544 389.196 641.335 389.524C642.126 389.851 642.974 390.02 643.83 390.02C645.559 390.02 647.218 389.333 648.44 388.11C649.663 386.888 650.35 385.229 650.35 383.5Z" fill="#C0C0C0"/>
<path d="M799.99 364.02L897.16 364.03C898.069 364.03 898.966 364.224 899.79 364.6L906.41 367.66C906.717 367.807 907.017 367.783 907.31 367.59C909.09 366.43 911.12 364.09 913.25 364.09C941.23 364.003 969.21 363.987 997.19 364.04C997.523 364.04 997.69 364.207 997.69 364.54C997.843 376.473 997.91 388.377 997.89 400.25C997.83 447.997 997.787 495.743 997.76 543.49C997.753 551.743 997.573 558.407 997.22 563.48C993.833 612.727 978.82 658.223 952.18 699.97C936.347 724.403 917.323 745.923 895.11 764.53C891.543 767.517 886.28 771.61 879.32 776.81C852.907 796.55 826.44 816.277 799.92 835.99L800.06 821.25C805.087 820.29 807.097 817.527 806.09 812.96C805.457 810.1 803.517 808.41 800.27 807.89C799.87 805.557 799.89 803.16 800.33 800.7C800.93 800.593 801.477 800.31 801.97 799.85C818.27 787.697 834.6 775.577 850.96 763.49C878.193 743.377 901.07 719.41 919.59 691.59C951.563 643.577 967.733 590.447 968.1 532.2C968.227 511.733 968.227 491.013 968.1 470.04C968.093 469.346 967.9 468.669 967.54 468.08L964.38 462.91C964.173 462.563 964.173 462.223 964.38 461.89C965.67 459.82 968.12 457 968.13 454.5C968.183 437.167 968.19 419.657 968.15 401.97C968.15 401.742 968.06 401.523 967.901 401.362C967.742 401.201 967.525 401.11 967.3 401.11L800.72 401.1C800.52 401.093 800.36 401.053 800.24 400.98L799.74 364.53C799.74 364.417 799.773 364.313 799.84 364.22L799.99 364.02ZM952.751 390.139C954.443 389.973 955.998 389.125 957.074 387.781C958.15 386.438 958.659 384.709 958.489 382.974C958.319 381.24 957.484 379.643 956.168 378.534C954.851 377.425 953.161 376.896 951.469 377.061C949.777 377.227 948.222 378.075 947.146 379.419C946.07 380.762 945.561 382.491 945.731 384.225C945.901 385.96 946.736 387.557 948.052 388.666C949.369 389.775 951.059 390.304 952.751 390.139ZM978.99 383.43C978.99 381.749 978.322 380.136 977.133 378.947C975.944 377.758 974.331 377.09 972.65 377.09C970.969 377.09 969.356 377.758 968.167 378.947C966.978 380.136 966.31 381.749 966.31 383.43C966.31 385.111 966.978 386.724 968.167 387.913C969.356 389.102 970.969 389.77 972.65 389.77C974.331 389.77 975.944 389.102 977.133 387.913C978.322 386.724 978.99 385.111 978.99 383.43Z" fill="#A2A2A2"/>
<path d="M945.731 384.225C946.085 387.837 949.228 390.484 952.751 390.139C956.274 389.793 958.843 386.586 958.489 382.974C958.135 379.363 954.992 376.716 951.469 377.061C947.946 377.407 945.376 380.614 945.731 384.225Z" fill="#767676"/>
<path d="M623.41 390.03C627.016 390.03 629.94 387.106 629.94 383.5C629.94 379.894 627.016 376.97 623.41 376.97C619.804 376.97 616.88 379.894 616.88 383.5C616.88 387.106 619.804 390.03 623.41 390.03Z" fill="#767676"/>
<path d="M643.83 390.02C647.431 390.02 650.35 387.101 650.35 383.5C650.35 379.899 647.431 376.98 643.83 376.98C640.229 376.98 637.31 379.899 637.31 383.5C637.31 387.101 640.229 390.02 643.83 390.02Z" fill="#767676"/>
<path d="M972.65 389.77C976.152 389.77 978.99 386.932 978.99 383.43C978.99 379.929 976.152 377.09 972.65 377.09C969.149 377.09 966.31 379.929 966.31 383.43C966.31 386.932 969.149 389.77 972.65 389.77Z" fill="#767676"/>
<path d="M800.24 400.98C800.36 401.053 800.52 401.093 800.72 401.1C801.16 401.153 801.357 401.45 801.31 401.99C801.14 404.14 800.81 406.23 800.83 408.34C800.963 426.427 800.843 444.477 800.47 462.49L778.89 483.71C778.851 483.747 778.819 483.792 778.798 483.842C778.777 483.892 778.766 483.946 778.766 484C778.766 484.054 778.777 484.108 778.798 484.158C778.819 484.208 778.851 484.253 778.89 484.29L800.23 505.21C800.6 506.28 800.93 507.31 800.92 508.49C800.9 511.223 800.967 513.96 801.12 516.7C801.25 519.12 800.48 521.38 800.52 523.89L756.72 567.75C756.48 567.99 756.48 568.23 756.72 568.47L800.51 612.32C801.07 616.127 801.157 619.967 800.77 623.84C800.52 626.4 800.69 628.95 800.5 631.51L779.3 652.74C779.269 652.771 779.246 652.808 779.229 652.849C779.213 652.89 779.206 652.933 779.207 652.977C779.208 653.021 779.217 653.064 779.235 653.104C779.253 653.144 779.278 653.18 779.31 653.21L800.56 674.36L801.07 799.27C801.07 799.603 801.237 799.803 801.57 799.87C801.697 799.89 801.83 799.883 801.97 799.85C801.477 800.31 800.93 800.593 800.33 800.7C800.21 800.327 800 800.03 799.7 799.81C782.867 787.323 766.077 774.78 749.33 762.18C742.717 757.207 737.49 753.07 733.65 749.77C697.263 718.503 670.35 680.507 652.91 635.78C641.797 607.28 635.473 577.52 633.94 546.5C633.72 542.04 633.617 535.377 633.63 526.51C633.683 484.803 633.68 443.147 633.62 401.54C633.62 401.48 633.632 401.42 633.655 401.364C633.678 401.308 633.712 401.257 633.755 401.215C633.797 401.172 633.848 401.138 633.904 401.115C633.96 401.092 634.02 401.08 634.08 401.08C656.347 401.14 678.597 401.16 700.83 401.14C703.66 401.14 705.62 402.88 707.47 404.76C707.596 404.889 707.763 404.969 707.942 404.987C708.121 405.005 708.301 404.96 708.45 404.86C709.65 404.033 710.85 403.237 712.05 402.47C713.27 401.683 714.597 401.253 716.03 401.18C717.69 401.093 719.347 401.053 721 401.06C747.38 401.16 773.87 401.56 800.24 400.98ZM716.617 547.052C716.574 547.009 716.523 546.975 716.467 546.952C716.411 546.929 716.352 546.917 716.291 546.917C716.231 546.917 716.171 546.929 716.115 546.952C716.059 546.975 716.009 547.009 715.966 547.052L695.262 567.756C695.219 567.799 695.185 567.849 695.162 567.905C695.139 567.961 695.127 568.021 695.127 568.081C695.127 568.142 695.139 568.201 695.162 568.257C695.185 568.313 695.219 568.364 695.262 568.406L715.924 589.068C715.966 589.111 716.017 589.145 716.073 589.168C716.129 589.191 716.188 589.203 716.249 589.203C716.309 589.203 716.369 589.191 716.425 589.168C716.481 589.145 716.531 589.111 716.574 589.068L737.278 568.364C737.321 568.321 737.355 568.271 737.378 568.215C737.401 568.159 737.413 568.099 737.413 568.039C737.413 567.978 737.401 567.919 737.378 567.863C737.355 567.807 737.321 567.756 737.278 567.713L716.617 547.052Z" fill="#333F42"/>
<path d="M800.72 401.1L967.3 401.11C967.525 401.11 967.742 401.201 967.901 401.362C968.06 401.523 968.15 401.742 968.15 401.97C968.19 419.657 968.183 437.167 968.13 454.5C968.12 457 965.67 459.82 964.38 461.89C964.173 462.223 964.173 462.563 964.38 462.91L967.54 468.08C967.9 468.669 968.093 469.346 968.1 470.04C968.227 491.013 968.227 511.733 968.1 532.2C967.733 590.447 951.563 643.577 919.59 691.59C901.07 719.41 878.193 743.377 850.96 763.49C834.6 775.577 818.27 787.697 801.97 799.85C801.83 799.883 801.697 799.89 801.57 799.87C801.237 799.803 801.07 799.603 801.07 799.27L800.56 674.36L821.73 653.19C821.8 653.118 821.84 653.022 821.84 652.922C821.84 652.823 821.8 652.729 821.73 652.66L800.5 631.51C800.69 628.95 800.52 626.4 800.77 623.84C801.157 619.967 801.07 616.127 800.51 612.32L844.34 568.51C844.6 568.25 844.6 567.99 844.34 567.73L800.52 523.89C800.48 521.38 801.25 519.12 801.12 516.7C800.967 513.96 800.9 511.223 800.92 508.49C800.93 507.31 800.6 506.28 800.23 505.21L820.72 484.43C821.147 483.997 821.147 483.56 820.72 483.12L800.47 462.49C800.843 444.477 800.963 426.427 800.83 408.34C800.81 406.23 801.14 404.14 801.31 401.99C801.357 401.45 801.16 401.153 800.72 401.1ZM906.541 567.573C906.57 567.544 906.593 567.51 906.608 567.472C906.624 567.435 906.632 567.394 906.631 567.353C906.631 567.313 906.623 567.272 906.608 567.235C906.592 567.197 906.569 567.163 906.54 567.134L885.602 546.269C885.573 546.24 885.539 546.217 885.501 546.202C885.463 546.186 885.423 546.178 885.382 546.178C885.342 546.179 885.301 546.187 885.264 546.202C885.226 546.218 885.192 546.241 885.163 546.27L864.199 567.307C864.17 567.336 864.147 567.37 864.132 567.408C864.116 567.446 864.108 567.486 864.109 567.527C864.109 567.567 864.117 567.608 864.132 567.645C864.148 567.683 864.171 567.717 864.2 567.746L885.138 588.611C885.167 588.64 885.201 588.663 885.239 588.678C885.277 588.694 885.317 588.702 885.358 588.702C885.398 588.702 885.439 588.694 885.476 588.678C885.514 588.662 885.548 588.639 885.577 588.611L906.541 567.573Z" fill="#282F2E"/>
<path d="M800.47 462.49L820.72 483.12C821.147 483.56 821.147 483.997 820.72 484.43L800.23 505.21L778.89 484.29C778.851 484.253 778.819 484.208 778.798 484.158C778.777 484.108 778.766 484.054 778.766 484C778.766 483.946 778.777 483.892 778.798 483.842C778.819 483.792 778.851 483.747 778.89 483.71L800.47 462.49ZM799.97 468.22L799.45 468.2C799.117 468.18 798.827 468.28 798.58 468.5C793.147 473.267 788.13 478.42 783.53 483.96L800.1 500.12C805.7 494.973 810.927 489.807 815.78 484.62C815.907 484.487 815.957 484.367 815.93 484.26C815.897 484.14 815.82 484.02 815.7 483.9C815.687 483.24 815.363 482.603 814.73 481.99C809.977 477.41 805.313 472.74 800.74 467.98C800.333 467.553 800.077 467.633 799.97 468.22Z" fill="#D0B894"/>
<path d="M815.7 483.9L800.9 483.78C800.3 482.993 799.993 481.817 799.98 480.25C799.933 476.237 799.93 472.227 799.97 468.22C800.077 467.633 800.333 467.553 800.74 467.98C805.313 472.74 809.977 477.41 814.73 481.99C815.363 482.603 815.687 483.24 815.7 483.9Z" fill="#FFC0C0"/>
<path d="M799.97 468.22C799.93 472.227 799.933 476.237 799.98 480.25C799.993 481.817 800.3 482.993 800.9 483.78L799.75 484.09L783.53 483.96C788.13 478.42 793.147 473.267 798.58 468.5C798.827 468.28 799.117 468.18 799.45 468.2L799.97 468.22Z" fill="#FF9292"/>
<path d="M799.75 484.09L800.1 500.12L783.53 483.96L799.75 484.09Z" fill="#974646"/>
<path d="M800.9 483.78L815.7 483.9C815.82 484.02 815.897 484.14 815.93 484.26C815.957 484.367 815.907 484.487 815.78 484.62C810.927 489.807 805.7 494.973 800.1 500.12L799.75 484.09L800.9 483.78Z" fill="#FF5C5C"/>
<path d="M577.19 500.99L587.29 504.71C587.349 504.732 587.4 504.772 587.435 504.824C587.471 504.876 587.49 504.937 587.49 505C587.49 505.063 587.471 505.124 587.435 505.176C587.4 505.228 587.349 505.268 587.29 505.29L577.19 509.01C577.149 509.026 577.112 509.05 577.081 509.081C577.05 509.112 577.026 509.149 577.01 509.19L573.29 519.29C573.268 519.349 573.228 519.4 573.176 519.435C573.124 519.471 573.063 519.49 573 519.49C572.937 519.49 572.876 519.471 572.824 519.435C572.772 519.4 572.732 519.349 572.71 519.29L568.99 509.19C568.974 509.149 568.95 509.112 568.919 509.081C568.888 509.05 568.851 509.026 568.81 509.01L558.71 505.29C558.651 505.268 558.6 505.228 558.565 505.176C558.529 505.124 558.51 505.063 558.51 505C558.51 504.937 558.529 504.876 558.565 504.824C558.6 504.772 558.651 504.732 558.71 504.71L568.81 500.99C568.851 500.974 568.888 500.95 568.919 500.919C568.95 500.888 568.974 500.851 568.99 500.81L572.71 490.71C572.732 490.651 572.772 490.6 572.824 490.565C572.876 490.529 572.937 490.51 573 490.51C573.063 490.51 573.124 490.529 573.176 490.565C573.228 490.6 573.268 490.651 573.29 490.71L577.01 500.81C577.026 500.851 577.05 500.888 577.081 500.919C577.112 500.95 577.149 500.974 577.19 500.99Z" fill="white"/>
<path d="M584.96 519.99C586.617 519.99 587.96 518.647 587.96 516.99C587.96 515.333 586.617 513.99 584.96 513.99C583.303 513.99 581.96 515.333 581.96 516.99C581.96 518.647 583.303 519.99 584.96 519.99Z" fill="white"/>
<path d="M800.52 523.89L844.34 567.73C844.6 567.99 844.6 568.25 844.34 568.51L800.51 612.32L756.72 568.47C756.48 568.23 756.48 567.99 756.72 567.75L800.52 523.89ZM799.78 534.21C799.653 534.317 799.5 534.377 799.32 534.39C799.06 534.403 798.847 534.507 798.68 534.7C795.07 538.95 790.79 542.83 787.22 546.71C784.793 549.343 783.053 551.103 782 551.99C780 553.67 778.473 555.1 777.42 556.28C774.15 559.96 770.65 563.46 767.2 566.96C767.028 567.138 766.893 567.349 766.8 567.58L766.55 568.2C766.603 567.947 766.603 567.997 766.55 568.35C766.537 568.45 766.567 568.537 766.64 568.61L800.22 602.11C800.193 602.477 800.85 602.003 802.19 600.69C813.03 590.097 823.807 579.437 834.52 568.71C834.747 568.483 834.657 568.28 834.25 568.1C834.37 568.153 834.49 568.117 834.61 567.99C834.79 567.79 834.79 567.593 834.61 567.4C832.58 565.28 830.14 563.44 828.25 561.43C821.817 554.57 815.17 547.917 808.31 541.47C806.02 539.31 803.89 536.15 801.52 534.19C800.793 533.583 800.213 533.59 799.78 534.21Z" fill="#D0B894"/>
<path d="M834.25 568.1L800.8 568.09C800.74 567.33 800.44 566.62 800.44 565.97C800.513 552.137 800.507 541.98 800.42 535.5C800.413 535.067 800.2 534.637 799.78 534.21C800.213 533.59 800.793 533.583 801.52 534.19C803.89 536.15 806.02 539.31 808.31 541.47C815.17 547.917 821.817 554.57 828.25 561.43C830.14 563.44 832.58 565.28 834.61 567.4C834.79 567.593 834.79 567.79 834.61 567.99C834.49 568.117 834.37 568.153 834.25 568.1Z" fill="#FFC0C0"/>
<path d="M799.78 534.21C800.2 534.637 800.413 535.067 800.42 535.5C800.507 541.98 800.513 552.137 800.44 565.97C800.44 566.62 800.74 567.33 800.8 568.09C800.92 567.863 800.723 567.907 800.21 568.22L766.55 568.2L766.8 567.58C766.893 567.349 767.028 567.138 767.2 566.96C770.65 563.46 774.15 559.96 777.42 556.28C778.473 555.1 780 553.67 782 551.99C783.053 551.103 784.793 549.343 787.22 546.71C790.79 542.83 795.07 538.95 798.68 534.7C798.847 534.507 799.06 534.403 799.32 534.39C799.5 534.377 799.653 534.317 799.78 534.21Z" fill="#FF9292"/>
<path d="M885.577 588.61C885.548 588.639 885.514 588.662 885.476 588.678C885.439 588.693 885.398 588.701 885.358 588.702C885.317 588.702 885.277 588.694 885.239 588.678C885.201 588.663 885.167 588.64 885.138 588.611L864.2 567.746C864.171 567.717 864.148 567.683 864.132 567.645C864.117 567.607 864.109 567.567 864.109 567.526C864.108 567.486 864.116 567.445 864.132 567.408C864.147 567.37 864.17 567.336 864.199 567.307L885.163 546.269C885.192 546.241 885.226 546.218 885.264 546.202C885.301 546.186 885.342 546.178 885.382 546.178C885.423 546.178 885.463 546.186 885.501 546.202C885.539 546.217 885.573 546.24 885.602 546.269L906.54 567.134C906.569 567.163 906.592 567.197 906.608 567.235C906.623 567.272 906.631 567.313 906.631 567.353C906.632 567.394 906.624 567.434 906.608 567.472C906.593 567.51 906.57 567.544 906.541 567.573L885.577 588.61ZM885.44 551.97C885.36 551.83 885.25 551.727 885.11 551.66C884.973 551.596 884.82 551.575 884.671 551.6C884.523 551.625 884.386 551.695 884.28 551.8C879.2 556.88 874.117 561.96 869.03 567.04C868.81 567.26 868.89 567.487 869.27 567.72C871.53 570.053 873.577 572.183 875.41 574.11C878.123 576.977 880.853 579.823 883.6 582.65C883.913 582.963 884.46 583.01 885.24 582.79L885.29 583.28C885.301 583.366 885.336 583.448 885.391 583.515C885.447 583.583 885.52 583.633 885.603 583.66C885.685 583.687 885.774 583.69 885.859 583.669C885.943 583.648 886.02 583.603 886.08 583.54L901.46 567.62C901.56 567.193 901.47 566.837 901.19 566.55C896.143 561.437 891.037 556.393 885.87 551.42C885.832 551.382 885.78 551.36 885.724 551.358C885.669 551.356 885.614 551.374 885.57 551.41C885.443 551.517 885.4 551.703 885.44 551.97Z" fill="#D0B894"/>
<path d="M737.278 567.713C737.321 567.756 737.355 567.807 737.378 567.863C737.401 567.918 737.413 567.978 737.413 568.039C737.413 568.099 737.401 568.159 737.378 568.215C737.355 568.271 737.321 568.321 737.278 568.364L716.574 589.068C716.531 589.111 716.481 589.145 716.425 589.168C716.369 589.191 716.309 589.203 716.249 589.203C716.188 589.203 716.129 589.191 716.073 589.168C716.017 589.145 715.966 589.111 715.924 589.068L695.262 568.406C695.219 568.364 695.185 568.313 695.162 568.257C695.139 568.201 695.127 568.141 695.127 568.081C695.127 568.021 695.139 567.961 695.162 567.905C695.185 567.849 695.219 567.799 695.262 567.756L715.966 547.052C716.009 547.009 716.059 546.975 716.115 546.952C716.171 546.929 716.231 546.917 716.291 546.917C716.352 546.917 716.411 546.929 716.467 546.952C716.523 546.975 716.574 547.009 716.617 547.052L737.278 567.713ZM716.39 552.12C716.21 552.12 716.053 552.12 715.92 552.12C715.62 552.12 715.367 552.227 715.16 552.44C710.333 557.273 705.5 562.1 700.66 566.92C700.28 567.3 700.093 567.677 700.1 568.05C699.907 568.463 699.987 568.833 700.34 569.16C703.14 571.77 705.82 574.02 708.5 576.99C710.427 579.137 712.477 581.153 714.65 583.04C715.16 583.49 715.65 583.52 716.31 583.55C716.31 583.697 716.343 583.807 716.41 583.88C716.435 583.911 716.467 583.935 716.502 583.953C716.538 583.971 716.577 583.981 716.617 583.983C716.658 583.985 716.698 583.978 716.737 583.964C716.775 583.95 716.81 583.928 716.84 583.9L732.88 568.06C727.44 562.313 722.12 556.917 716.92 551.87C716.667 551.617 716.49 551.7 716.39 552.12Z" fill="#D0B894"/>
<path d="M901.46 567.62C896.793 567.38 892.14 567.397 887.5 567.67C886.793 567.71 886.103 567.977 885.43 568.47C885.463 568.25 885.307 567.957 884.96 567.59C885.207 567.383 885.33 567.187 885.33 567C885.343 561.98 885.38 556.97 885.44 551.97C885.4 551.703 885.443 551.517 885.57 551.41C885.614 551.375 885.669 551.356 885.724 551.358C885.78 551.36 885.832 551.382 885.87 551.42C891.037 556.393 896.143 561.437 901.19 566.55C901.47 566.837 901.56 567.193 901.46 567.62Z" fill="#FF5C5C"/>
<path d="M885.44 551.97C885.38 556.97 885.343 561.98 885.33 567C885.33 567.187 885.207 567.383 884.96 567.59L869.27 567.72C868.89 567.487 868.81 567.26 869.03 567.04C874.117 561.96 879.2 556.88 884.28 551.8C884.386 551.695 884.523 551.625 884.671 551.6C884.82 551.575 884.973 551.596 885.11 551.66C885.25 551.727 885.36 551.83 885.44 551.97Z" fill="#FFC0C0"/>
<path d="M732.88 568.06C727.747 568.047 723.12 568.027 719 568C717.967 567.993 717.153 568.24 716.56 568.74C716.18 568.42 716.093 568.083 716.3 567.73L716.39 552.12C716.49 551.7 716.667 551.617 716.92 551.87C722.12 556.917 727.44 562.313 732.88 568.06Z" fill="#FF5C5C"/>
<path d="M716.39 552.12L716.3 567.73L700.1 568.05C700.093 567.677 700.28 567.3 700.66 566.92C705.5 562.1 710.333 557.273 715.16 552.44C715.367 552.227 715.62 552.12 715.92 552.12C716.053 552.12 716.21 552.12 716.39 552.12Z" fill="#FFC0C0"/>
<path d="M884.96 567.59C885.307 567.957 885.463 568.25 885.43 568.47L885.24 582.79C884.46 583.01 883.913 582.963 883.6 582.65C880.853 579.823 878.123 576.977 875.41 574.11C873.577 572.183 871.53 570.053 869.27 567.72L884.96 567.59Z" fill="#FF9292"/>
<path d="M901.46 567.62L886.08 583.54C886.02 583.603 885.943 583.648 885.859 583.669C885.774 583.691 885.685 583.687 885.603 583.66C885.52 583.633 885.447 583.583 885.391 583.515C885.336 583.448 885.301 583.366 885.29 583.28L885.24 582.79L885.43 568.47C886.103 567.977 886.793 567.71 887.5 567.67C892.14 567.397 896.793 567.38 901.46 567.62Z" fill="#974646"/>
<path d="M716.3 567.73C716.093 568.083 716.18 568.42 716.56 568.74L716.31 583.55C715.65 583.52 715.16 583.49 714.65 583.04C712.477 581.153 710.427 579.137 708.5 576.99C705.82 574.02 703.14 571.77 700.34 569.16C699.987 568.833 699.907 568.463 700.1 568.05L716.3 567.73Z" fill="#FF9292"/>
<path d="M732.88 568.06L716.84 583.9C716.81 583.928 716.775 583.95 716.737 583.964C716.698 583.979 716.658 583.985 716.617 583.983C716.577 583.981 716.538 583.971 716.502 583.953C716.467 583.936 716.435 583.911 716.41 583.88C716.343 583.807 716.31 583.697 716.31 583.55L716.56 568.74C717.153 568.24 717.967 567.993 719 568C723.12 568.027 727.747 568.047 732.88 568.06Z" fill="#974646"/>
<path d="M766.55 568.2L800.21 568.22L800.22 602.11L766.64 568.61C766.567 568.537 766.537 568.45 766.55 568.35C766.603 567.997 766.603 567.947 766.55 568.2Z" fill="#974646"/>
<path d="M800.8 568.09L834.25 568.1C834.657 568.28 834.747 568.483 834.52 568.71C823.807 579.437 813.03 590.097 802.19 600.69C800.85 602.003 800.193 602.477 800.22 602.11L800.21 568.22C800.723 567.907 800.92 567.863 800.8 568.09Z" fill="#FF5C5C"/>
<path d="M800.5 631.51L821.73 652.66C821.8 652.728 821.84 652.823 821.84 652.922C821.84 653.021 821.8 653.118 821.73 653.19L800.56 674.36L779.31 653.21C779.278 653.18 779.253 653.144 779.235 653.104C779.217 653.064 779.208 653.021 779.207 652.977C779.206 652.933 779.213 652.89 779.23 652.849C779.246 652.808 779.27 652.771 779.3 652.74L800.5 631.51ZM800.57 636.44L799.28 637.14C798.987 637.293 798.727 637.49 798.5 637.73L783.77 653.02C789.41 658.507 794.717 663.793 799.69 668.88C799.977 669.167 800.237 669.303 800.47 669.29C800.817 669.27 801.077 669.027 801.25 668.56L817.16 653.08L800.57 636.44Z" fill="#D0B894"/>
<path d="M817.16 653.08L800.73 653.01L800.57 636.44L817.16 653.08Z" fill="#FFC0C0"/>
<path d="M800.57 636.44L800.73 653.01C800.603 652.957 800.37 652.987 800.03 653.1L783.77 653.02L798.5 637.73C798.727 637.49 798.987 637.293 799.28 637.14L800.57 636.44Z" fill="#FF9292"/>
<path d="M783.77 653.02L800.03 653.1C800.103 653.14 800.173 653.183 800.24 653.23C800.26 653.243 800.27 653.26 800.27 653.28C800.563 657.907 800.643 662.537 800.51 667.17C800.503 667.503 800.603 667.793 800.81 668.04L801.25 668.56C801.077 669.027 800.817 669.27 800.47 669.29C800.237 669.303 799.977 669.167 799.69 668.88C794.717 663.793 789.41 658.507 783.77 653.02Z" fill="#974646"/>
<path d="M800.73 653.01L817.16 653.08L801.25 668.56L800.81 668.04C800.603 667.793 800.503 667.503 800.51 667.17C800.643 662.537 800.563 657.907 800.27 653.28C800.27 653.26 800.26 653.243 800.24 653.23C800.173 653.183 800.103 653.14 800.03 653.1C800.37 652.987 800.603 652.957 800.73 653.01Z" fill="#FF5C5C"/>
<path d="M895.48 806.23L900.98 808.2C901.046 808.223 901.103 808.267 901.143 808.324C901.183 808.381 901.205 808.45 901.205 808.52C901.205 808.59 901.183 808.658 901.143 808.715C901.103 808.773 901.046 808.816 900.98 808.84L895.48 810.81C895.434 810.827 895.393 810.854 895.358 810.888C895.324 810.923 895.297 810.964 895.28 811.01L893.31 816.51C893.286 816.576 893.243 816.633 893.186 816.673C893.128 816.713 893.06 816.735 892.99 816.735C892.92 816.735 892.852 816.713 892.794 816.673C892.737 816.633 892.694 816.576 892.67 816.51L890.7 811.01C890.683 810.964 890.656 810.923 890.622 810.888C890.587 810.854 890.546 810.827 890.5 810.81L885 808.84C884.934 808.816 884.877 808.773 884.837 808.715C884.797 808.658 884.775 808.59 884.775 808.52C884.775 808.45 884.797 808.381 884.837 808.324C884.877 808.267 884.934 808.223 885 808.2L890.5 806.23C890.546 806.213 890.587 806.186 890.622 806.152C890.656 806.117 890.683 806.076 890.7 806.03L892.67 800.53C892.694 800.464 892.737 800.407 892.794 800.367C892.852 800.326 892.92 800.305 892.99 800.305C893.06 800.305 893.128 800.326 893.186 800.367C893.243 800.407 893.286 800.464 893.31 800.53L895.28 806.03C895.297 806.076 895.324 806.117 895.358 806.152C895.393 806.186 895.434 806.213 895.48 806.23Z" fill="white"/>
<path d="M800.27 807.89C803.517 808.41 805.457 810.1 806.09 812.96C807.097 817.527 805.087 820.29 800.06 821.25C795.98 820.803 793.827 818.87 793.6 815.45C793.3 811.07 796.04 808.4 800.27 807.89Z" fill="#767676"/>
<path d="M737.98 824.06C739.118 824.06 740.04 823.138 740.04 822C740.04 820.862 739.118 819.94 737.98 819.94C736.842 819.94 735.92 820.862 735.92 822C735.92 823.138 736.842 824.06 737.98 824.06Z" fill="white"/>
<path d="M881.95 824.04C883.071 824.04 883.98 823.131 883.98 822.01C883.98 820.889 883.071 819.98 881.95 819.98C880.829 819.98 879.92 820.889 879.92 822.01C879.92 823.131 880.829 824.04 881.95 824.04Z" fill="white"/>
<path d="M757.52 830.2L762.94 832.21C763.005 832.236 763.061 832.281 763.1 832.339C763.139 832.397 763.16 832.465 763.16 832.535C763.16 832.605 763.139 832.674 763.1 832.731C763.061 832.789 763.005 832.834 762.94 832.86L757.51 834.84C757.464 834.859 757.422 834.887 757.387 834.924C757.353 834.96 757.326 835.003 757.31 835.05L755.3 840.47C755.274 840.535 755.229 840.591 755.171 840.63C755.113 840.669 755.045 840.69 754.975 840.69C754.905 840.69 754.837 840.669 754.779 840.63C754.721 840.591 754.676 840.535 754.65 840.47L752.67 835.04C752.651 834.994 752.623 834.952 752.587 834.917C752.55 834.883 752.507 834.857 752.46 834.84L747.04 832.83C746.975 832.804 746.919 832.759 746.88 832.701C746.841 832.643 746.82 832.575 746.82 832.505C746.82 832.435 746.841 832.367 746.88 832.309C746.919 832.251 746.975 832.206 747.04 832.18L752.47 830.2C752.516 830.182 752.558 830.153 752.593 830.117C752.627 830.081 752.654 830.037 752.67 829.99L754.68 824.57C754.706 824.505 754.751 824.45 754.809 824.41C754.867 824.371 754.935 824.35 755.005 824.35C755.075 824.35 755.143 824.371 755.201 824.41C755.259 824.45 755.304 824.505 755.33 824.57L757.31 830C757.329 830.047 757.357 830.088 757.393 830.123C757.43 830.157 757.473 830.184 757.52 830.2Z" fill="white"/>
</svg>
