<svg width="1600" height="1200" viewBox="0 0 1600 1200" fill="none" xmlns="http://www.w3.org/2000/svg">
<path d="M843.27 397C843.237 451.667 843.237 506.333 843.27 561C843.277 563.047 842.81 564.743 841.87 566.09C841.677 566.363 841.66 566.643 841.82 566.93C842.78 568.683 843.26 569.87 843.26 570.49C843.253 573.77 843.253 577.033 843.26 580.28L843.24 637.46C842.867 636.833 842.637 636.183 842.55 635.51C842.51 635.197 842.337 635.067 842.03 635.12C841.457 635.207 840.893 635.16 840.34 634.98C840.047 634.887 839.75 634.85 839.45 634.87L835.33 635.2C834.963 635.233 834.65 635.117 834.39 634.85C833.783 634.237 833.073 634.123 832.26 634.51C832.073 634.597 831.957 634.74 831.91 634.94C831.85 635.22 831.677 635.347 831.39 635.32C828.023 635.033 824.57 635.21 821.03 635.85C820.703 635.903 820.387 635.873 820.08 635.76C819.52 635.553 818.943 635.483 818.35 635.55C818.023 635.583 817.74 635.71 817.5 635.93C817.113 636.283 816.677 636.503 816.19 636.59C816.003 636.623 815.487 636.527 814.64 636.3C814.193 636.173 813.647 636.123 813 636.15C811.367 636.197 807.657 636.107 801.87 635.88L801.92 619.27C801.993 555.363 801.993 491.44 801.92 427.5C801.88 401.39 801.95 375.27 801.83 349.16C801.73 328.56 801.95 304.93 801.92 290.5C801.92 290 801.69 289.437 801.23 288.81C801.677 288.29 802.077 288.217 802.43 288.59C807.73 294.123 814.233 301.257 821.94 309.99C822.18 310.257 822.347 310.563 822.44 310.91L823.23 313.89C823.27 314.041 823.35 314.179 823.463 314.288C823.576 314.397 823.716 314.474 823.87 314.51C825.917 314.983 827.667 316.023 829.12 317.63C833.507 322.49 837.917 327.267 842.35 331.96C842.94 332.576 843.27 333.397 843.27 334.25V397Z" fill="#A2A2A2"/>
<path d="M877.55 302.68L891.24 307.69C891.306 307.713 891.363 307.757 891.403 307.814C891.443 307.871 891.465 307.94 891.465 308.01C891.465 308.08 891.443 308.148 891.403 308.205C891.363 308.263 891.306 308.306 891.24 308.33L877.55 313.34C877.501 313.357 877.457 313.384 877.421 313.421C877.384 313.457 877.357 313.501 877.34 313.55L872.33 327.24C872.306 327.306 872.263 327.363 872.206 327.403C872.148 327.443 872.08 327.465 872.01 327.465C871.94 327.465 871.872 327.443 871.814 327.403C871.757 327.363 871.714 327.306 871.69 327.24L866.68 313.55C866.663 313.501 866.635 313.457 866.599 313.421C866.563 313.384 866.519 313.357 866.47 313.34L852.78 308.33C852.714 308.306 852.657 308.263 852.617 308.205C852.577 308.148 852.555 308.08 852.555 308.01C852.555 307.94 852.577 307.871 852.617 307.814C852.657 307.757 852.714 307.713 852.78 307.69L866.47 302.68C866.519 302.663 866.563 302.635 866.599 302.599C866.635 302.563 866.663 302.518 866.68 302.47L871.69 288.78C871.714 288.714 871.757 288.657 871.814 288.617C871.872 288.576 871.94 288.555 872.01 288.555C872.08 288.555 872.148 288.576 872.206 288.617C872.263 288.657 872.306 288.714 872.33 288.78L877.34 302.47C877.357 302.518 877.384 302.563 877.421 302.599C877.457 302.635 877.501 302.663 877.55 302.68Z" fill="white"/>
<path d="M801.23 288.81C801.69 289.437 801.92 290 801.92 290.5C801.95 304.93 801.73 328.56 801.83 349.16C801.95 375.27 801.88 401.39 801.92 427.5C801.993 491.44 801.993 555.363 801.92 619.27C799.46 620.063 797.653 620.35 796.5 620.13C795.113 619.87 793.723 619.773 792.33 619.84C789.797 619.973 788.41 620.04 788.17 620.04C785.077 619.993 781.94 620.01 778.76 620.09C776.773 620.137 774.783 620.027 772.79 619.76C770.763 619.487 768.747 619.5 766.74 619.8C765.4 620 764.067 620.15 762.74 620.25C761.4 620.35 760.06 620.5 758.72 620.7C758.72 618.173 758.72 615.587 758.72 612.94C758.73 609.59 759.65 607.8 760.78 605C760.84 604.846 760.865 604.68 760.855 604.514C760.844 604.349 760.798 604.187 760.72 604.04C759.193 601.287 758.49 598.383 758.61 595.33C758.643 567.89 758.697 540.483 758.77 513.11C758.77 510.87 759.25 508.9 759.67 506.74C759.95 505.287 759.913 503.807 759.56 502.3C759.013 499.98 758.737 498.297 758.73 497.25C758.65 464.563 758.643 431.887 758.71 399.22C758.75 377.72 758.72 356.23 758.62 334.75C758.613 333.41 759.347 332.017 760.82 330.57C764.26 327.21 767.613 323.767 770.88 320.24C772.02 319.01 772.98 318.89 774.52 318.58C774.84 318.513 775.04 318.317 775.12 317.99C775.49 316.46 775.57 315.39 776.74 314.18C784.9 305.747 793.063 297.29 801.23 288.81Z" fill="#C0C0C0"/>
<path d="M735.15 320.97L745.31 324.66C745.372 324.68 745.427 324.72 745.465 324.773C745.504 324.826 745.525 324.889 745.525 324.955C745.525 325.021 745.504 325.084 745.465 325.137C745.427 325.19 745.372 325.23 745.31 325.25L735.16 328.97C735.118 328.987 735.08 329.012 735.049 329.045C735.018 329.078 734.994 329.117 734.98 329.16L731.29 339.32C731.27 339.382 731.23 339.437 731.177 339.475C731.124 339.514 731.061 339.535 730.995 339.535C730.929 339.535 730.866 339.514 730.813 339.475C730.76 339.437 730.72 339.382 730.7 339.32L726.98 329.17C726.963 329.128 726.938 329.09 726.905 329.059C726.872 329.028 726.833 329.004 726.79 328.99L716.63 325.3C716.568 325.28 716.513 325.24 716.475 325.187C716.436 325.134 716.415 325.071 716.415 325.005C716.415 324.939 716.436 324.876 716.475 324.823C716.513 324.77 716.568 324.73 716.63 324.71L726.78 320.99C726.822 320.973 726.86 320.948 726.891 320.915C726.922 320.882 726.946 320.843 726.96 320.8L730.65 310.64C730.67 310.578 730.71 310.523 730.763 310.485C730.816 310.446 730.879 310.425 730.945 310.425C731.011 310.425 731.074 310.446 731.127 310.485C731.18 310.523 731.22 310.578 731.24 310.64L734.96 320.79C734.977 320.832 735.002 320.87 735.035 320.901C735.068 320.932 735.107 320.956 735.15 320.97Z" fill="white"/>
<path d="M855 326.03C856.662 326.03 858.01 324.682 858.01 323.02C858.01 321.357 856.662 320.01 855 320.01C853.338 320.01 851.99 321.357 851.99 323.02C851.99 324.682 853.338 326.03 855 326.03Z" fill="white"/>
<path d="M742.99 346.04C744.658 346.04 746.01 344.688 746.01 343.02C746.01 341.352 744.658 340 742.99 340C741.322 340 739.97 341.352 739.97 343.02C739.97 344.688 741.322 346.04 742.99 346.04Z" fill="white"/>
<path d="M867.53 438.2L873.06 440.25C873.12 440.269 873.172 440.308 873.209 440.359C873.246 440.41 873.266 440.472 873.266 440.535C873.266 440.598 873.246 440.66 873.209 440.711C873.172 440.762 873.12 440.8 873.06 440.82L867.52 442.85C867.479 442.865 867.441 442.889 867.41 442.92C867.379 442.951 867.355 442.988 867.34 443.03L865.29 448.56C865.27 448.62 865.232 448.672 865.181 448.709C865.13 448.746 865.068 448.766 865.005 448.766C864.942 448.766 864.88 448.746 864.829 448.709C864.778 448.672 864.74 448.62 864.72 448.56L862.69 443.02C862.675 442.978 862.651 442.941 862.62 442.91C862.589 442.879 862.551 442.855 862.51 442.84L856.98 440.79C856.92 440.77 856.868 440.732 856.831 440.681C856.794 440.629 856.774 440.568 856.774 440.505C856.774 440.442 856.794 440.38 856.831 440.329C856.868 440.278 856.92 440.239 856.98 440.22L862.52 438.19C862.561 438.175 862.599 438.151 862.63 438.12C862.661 438.089 862.685 438.051 862.7 438.01L864.75 432.48C864.77 432.42 864.808 432.367 864.859 432.33C864.91 432.293 864.972 432.273 865.035 432.273C865.098 432.273 865.16 432.293 865.211 432.33C865.262 432.367 865.3 432.42 865.32 432.48L867.35 438.02C867.365 438.061 867.389 438.099 867.42 438.13C867.451 438.161 867.489 438.185 867.53 438.2Z" fill="white"/>
<path d="M851.97 454.01C853.102 454.01 854.02 453.092 854.02 451.96C854.02 450.828 853.102 449.91 851.97 449.91C850.838 449.91 849.92 450.828 849.92 451.96C849.92 453.092 850.838 454.01 851.97 454.01Z" fill="white"/>
<path d="M748.574 494.923C747.836 495.832 747.88 497.091 748.673 497.735C749.466 498.379 750.707 498.165 751.446 497.257C752.184 496.348 752.14 495.089 751.347 494.445C750.554 493.8 749.313 494.014 748.574 494.923Z" fill="white"/>
<path d="M743.03 509.71L742.08 512.39C741.32 514.53 740.64 514.503 740.04 512.31C739.773 511.337 739.23 510.25 738.41 509.05C738.197 508.743 737.913 508.533 737.56 508.42L733.46 507.14C732.293 506.773 732.287 506.383 733.44 505.97L737.97 504.37C738.337 504.237 738.593 503.987 738.74 503.62L740.45 499.35C740.53 499.143 740.683 499.023 740.91 498.99C740.997 498.977 741.083 498.98 741.17 499C741.47 499.06 741.667 499.233 741.76 499.52L742.94 503.13C743.054 503.481 743.254 503.799 743.52 504.055C743.787 504.312 744.113 504.499 744.47 504.6L749.2 505.95C749.262 505.968 749.319 505.999 749.368 506.042C749.416 506.085 749.454 506.138 749.48 506.197C749.506 506.256 749.518 506.32 749.517 506.384C749.515 506.449 749.499 506.512 749.47 506.57C749.31 506.883 748.983 507.093 748.49 507.2C746.797 507.567 745.193 508.153 743.68 508.96C743.367 509.127 743.15 509.377 743.03 509.71Z" fill="white"/>
<path d="M801.92 619.27L801.87 635.88L801.98 649.85C800.013 650.283 798.02 650.54 796 650.62C793.767 650.707 791.78 650.89 790.04 651.17C786.12 651.797 782.197 651.94 778.27 651.6C776.563 651.453 774.907 651.49 773.3 651.71C771.6 651.943 769.917 652.03 768.25 651.97C767.217 651.937 766.237 652.123 765.31 652.53C764.283 652.99 763.263 653.32 762.25 653.52C761.77 653.613 761.247 653.547 760.68 653.32C760.367 653.2 760.053 653.197 759.74 653.31C759.253 653.497 758.87 653.733 758.59 654.02L758.72 620.7C760.06 620.5 761.4 620.35 762.74 620.25C764.067 620.15 765.4 620 766.74 619.8C768.747 619.5 770.763 619.487 772.79 619.76C774.783 620.027 776.773 620.137 778.76 620.09C781.94 620.01 785.077 619.993 788.17 620.04C788.41 620.04 789.797 619.973 792.33 619.84C793.723 619.773 795.113 619.87 796.5 620.13C797.653 620.35 799.46 620.063 801.92 619.27Z" fill="#B2B2B2"/>
<path d="M843.24 637.46L843.26 658.29C842.96 658.403 842.733 658.41 842.58 658.31C842.52 658.27 842.483 658.217 842.47 658.15C842.457 658.043 842.503 657.967 842.61 657.92C842.737 657.867 842.757 657.787 842.67 657.68C842.61 657.607 842.55 657.537 842.49 657.47C842.423 657.41 842.367 657.417 842.32 657.49C842.047 657.95 841.687 658.18 841.24 658.18C840.08 658.17 839.14 658.45 838.05 658.9C837.29 659.207 836.553 659.337 835.84 659.29C832.24 659.05 828.777 658.797 825.45 658.53C824.877 658.49 824.267 658.503 823.62 658.57C822.37 658.69 821.21 658.21 819.91 658.89C819.617 659.043 819.303 659.117 818.97 659.11C815.823 659.063 812.693 659.26 809.58 659.7C808.947 659.793 808.223 659.79 807.41 659.69C806.25 659.56 804.93 659.87 803.84 659.31C803.547 659.157 803.247 659.15 802.94 659.29C802.387 659.537 802.12 660.193 802.14 661.26L801.98 649.85L801.87 635.88C807.657 636.107 811.367 636.197 813 636.15C813.647 636.123 814.193 636.173 814.64 636.3C815.487 636.527 816.003 636.623 816.19 636.59C816.677 636.503 817.113 636.283 817.5 635.93C817.74 635.71 818.023 635.583 818.35 635.55C818.943 635.483 819.52 635.553 820.08 635.76C820.387 635.873 820.703 635.903 821.03 635.85C824.57 635.21 828.023 635.033 831.39 635.32C831.677 635.347 831.85 635.22 831.91 634.94C831.957 634.74 832.073 634.597 832.26 634.51C833.073 634.123 833.783 634.237 834.39 634.85C834.65 635.117 834.963 635.233 835.33 635.2L839.45 634.87C839.75 634.85 840.047 634.887 840.34 634.98C840.893 635.16 841.457 635.207 842.03 635.12C842.337 635.067 842.51 635.197 842.55 635.51C842.637 636.183 842.867 636.833 843.24 637.46Z" fill="#939393"/>
<path d="M801.98 649.85L802.14 661.26L802.07 664.8C800.59 664.693 799.13 664.59 797.69 664.49C796.15 664.383 794.71 664.52 793.37 664.9C791.11 665.54 789.03 666.54 786.71 666.68C785.023 666.787 783.337 666.903 781.65 667.03C777.937 667.297 774.497 667.223 771.33 666.81C769.543 666.577 767.773 666.66 766.02 667.06C764.52 667.407 763.023 667.42 761.53 667.1C761.301 667.053 761.064 667.057 760.834 667.112C760.605 667.168 760.388 667.273 760.2 667.42C760.147 667.46 760.1 667.51 760.06 667.57C759.833 667.897 759.557 667.893 759.23 667.56C759.057 667.387 758.873 667.297 758.68 667.29L758.59 654.02C758.87 653.733 759.253 653.497 759.74 653.31C760.053 653.197 760.367 653.2 760.68 653.32C761.247 653.547 761.77 653.613 762.25 653.52C763.263 653.32 764.283 652.99 765.31 652.53C766.237 652.123 767.217 651.937 768.25 651.97C769.917 652.03 771.6 651.943 773.3 651.71C774.907 651.49 776.563 651.453 778.27 651.6C782.197 651.94 786.12 651.797 790.04 651.17C791.78 650.89 793.767 650.707 796 650.62C798.02 650.54 800.013 650.283 801.98 649.85Z" fill="#A7A7A6"/>
<path d="M843.26 658.29L843.28 702.82L801.72 702.79C801.353 700.704 801.277 698.02 801.49 694.74C801.603 692.967 801.723 691.497 801.85 690.33C801.997 688.897 802.043 687.424 801.99 685.91C801.937 684.197 801.93 681.727 801.97 678.5C802.023 673.714 802.057 669.147 802.07 664.8L802.14 661.26C802.12 660.194 802.387 659.537 802.94 659.29C803.247 659.15 803.547 659.157 803.84 659.31C804.93 659.87 806.25 659.56 807.41 659.69C808.223 659.79 808.947 659.794 809.58 659.7C812.693 659.26 815.823 659.064 818.97 659.11C819.303 659.117 819.617 659.044 819.91 658.89C821.21 658.21 822.37 658.69 823.62 658.57C824.267 658.504 824.877 658.49 825.45 658.53C828.777 658.797 832.24 659.05 835.84 659.29C836.553 659.337 837.29 659.207 838.05 658.9C839.14 658.45 840.08 658.17 841.24 658.18C841.687 658.18 842.047 657.95 842.32 657.49C842.367 657.417 842.423 657.41 842.49 657.47C842.55 657.537 842.61 657.607 842.67 657.68C842.757 657.787 842.737 657.867 842.61 657.92C842.503 657.967 842.457 658.044 842.47 658.15C842.483 658.217 842.52 658.27 842.58 658.31C842.733 658.41 842.96 658.404 843.26 658.29Z" fill="#878787"/>
<path d="M802.07 664.8C802.057 669.147 802.023 673.713 801.97 678.5C801.93 681.727 801.937 684.197 801.99 685.91C802.043 687.423 801.997 688.897 801.85 690.33C801.723 691.497 801.603 692.967 801.49 694.74C801.277 698.02 801.353 700.703 801.72 702.79H758.6L758.68 667.29C758.873 667.297 759.057 667.387 759.23 667.56C759.557 667.893 759.833 667.897 760.06 667.57C760.1 667.51 760.147 667.46 760.2 667.42C760.388 667.273 760.605 667.168 760.834 667.112C761.064 667.057 761.301 667.053 761.53 667.1C763.023 667.42 764.52 667.407 766.02 667.06C767.773 666.66 769.543 666.577 771.33 666.81C774.497 667.223 777.937 667.297 781.65 667.03C783.337 666.904 785.023 666.787 786.71 666.68C789.03 666.54 791.11 665.54 793.37 664.9C794.71 664.52 796.15 664.383 797.69 664.49C799.13 664.59 800.59 664.693 802.07 664.8Z" fill="#999999"/>
<path d="M758.6 702.79H801.72L843.28 702.82L866.97 702.75C867.317 702.75 867.53 702.917 867.61 703.25C867.97 704.81 867.15 705.96 866.35 707.19C866.257 707.33 866.211 707.496 866.218 707.665C866.226 707.833 866.286 707.996 866.39 708.13C868.15 710.39 867.46 711.94 867.8 714.54C867.307 732.08 859.437 744.474 844.19 751.72C841.29 753.09 827.78 757.06 824.83 753.92C824.603 753.68 824.347 753.64 824.06 753.8C822.02 754.914 819.857 755.294 817.57 754.94C817.499 754.93 817.427 754.935 817.358 754.956C817.29 754.977 817.227 755.012 817.173 755.06C817.12 755.107 817.078 755.166 817.05 755.232C817.021 755.298 817.008 755.369 817.01 755.44L817.21 761.3L786.28 769.29L786.2 755.57C786.2 755.237 786.033 755.07 785.7 755.07C779.57 754.95 772.47 755.38 767.14 754.51C750.33 751.77 737.56 738.81 734.47 722.04L734.07 703.24C734.063 702.907 734.227 702.74 734.56 702.74L741.97 702.75C742.337 702.757 742.65 702.884 742.91 703.13C743.97 704.144 745.01 704.14 746.03 703.12C746.263 702.887 746.547 702.77 746.88 702.77L758.6 702.79ZM819.121 728.49C819.22 728.391 819.276 728.256 819.276 728.115C819.276 727.975 819.22 727.84 819.121 727.741L803.07 711.689C802.97 711.59 802.835 711.534 802.695 711.534C802.554 711.534 802.42 711.59 802.32 711.689L786.099 727.91C786 728.01 785.944 728.145 785.944 728.285C785.944 728.426 786 728.56 786.099 728.66L802.15 744.711C802.25 744.811 802.385 744.866 802.525 744.866C802.666 744.866 802.801 744.811 802.9 744.711L819.121 728.49ZM840.02 727.886C840.063 727.843 840.096 727.792 840.119 727.736C840.142 727.68 840.154 727.62 840.154 727.56C840.153 727.5 840.141 727.44 840.118 727.384C840.095 727.328 840.061 727.278 840.018 727.235L833.447 720.71C833.404 720.668 833.354 720.634 833.298 720.611C833.242 720.588 833.182 720.576 833.121 720.577C833.061 720.577 833.001 720.589 832.946 720.612C832.89 720.636 832.839 720.67 832.797 720.713L826.3 727.255C826.257 727.298 826.224 727.348 826.201 727.404C826.178 727.46 826.166 727.52 826.166 727.581C826.166 727.641 826.179 727.701 826.202 727.756C826.225 727.812 826.259 727.863 826.302 727.905L832.873 734.43C832.916 734.473 832.967 734.507 833.022 734.529C833.078 734.552 833.138 734.564 833.199 734.564C833.259 734.564 833.319 734.552 833.375 734.528C833.43 734.505 833.481 734.471 833.523 734.428L840.02 727.886ZM778.398 728.697C778.447 728.649 778.485 728.591 778.511 728.528C778.537 728.465 778.55 728.398 778.55 728.329C778.55 728.261 778.536 728.193 778.51 728.13C778.484 728.067 778.445 728.01 778.397 727.962L771.894 721.482C771.797 721.385 771.664 721.33 771.527 721.33C771.389 721.331 771.257 721.386 771.159 721.483L764.722 727.943C764.673 727.992 764.635 728.049 764.609 728.112C764.583 728.175 764.57 728.243 764.57 728.311C764.57 728.38 764.584 728.447 764.61 728.51C764.636 728.573 764.675 728.63 764.723 728.679L771.226 735.159C771.323 735.256 771.456 735.31 771.593 735.31C771.731 735.31 771.863 735.255 771.961 735.157L778.398 728.697Z" fill="#282F2E"/>
<path d="M802.9 744.711C802.801 744.81 802.666 744.866 802.525 744.866C802.385 744.866 802.25 744.81 802.15 744.711L786.099 728.659C786 728.56 785.944 728.425 785.944 728.285C785.944 728.144 786 728.009 786.099 727.91L802.32 711.689C802.42 711.59 802.554 711.534 802.695 711.534C802.835 711.534 802.97 711.59 803.07 711.689L819.121 727.74C819.22 727.84 819.276 727.974 819.276 728.115C819.276 728.256 819.22 728.39 819.121 728.49L802.9 744.711ZM789.69 728.51C795.683 734.656 799.827 738.78 802.12 740.88C802.48 741.206 802.767 741.166 802.98 740.76C803.66 740.393 804.153 740.046 804.46 739.72C807.867 736.08 811.413 732.583 815.1 729.23C815.287 729.056 815.38 728.893 815.38 728.74C815.38 728.513 815.243 728.343 814.97 728.23C815.09 727.856 815.093 727.613 814.98 727.5C813.173 725.62 809.2 721.636 803.06 715.55C801.127 715.583 799.777 716.45 799.01 718.15C798.87 718.457 798.67 718.716 798.41 718.93C795.503 721.33 792.927 724.043 790.68 727.07C790.233 727.676 789.903 728.156 789.69 728.51Z" fill="#D1B893"/>
<path d="M803.06 715.55C802.6 718.556 802.49 721.527 802.73 724.46C802.84 725.83 802.31 727.03 803.7 728.22C803.06 728.12 802.69 728.21 802.59 728.49C798.297 728.01 793.997 728.016 789.69 728.51C789.903 728.156 790.233 727.676 790.68 727.07C792.927 724.043 795.503 721.33 798.41 718.93C798.67 718.716 798.87 718.457 799.01 718.15C799.777 716.45 801.127 715.583 803.06 715.55Z" fill="#FF9595"/>
<path d="M803.06 715.55C809.2 721.636 813.173 725.62 814.98 727.5C815.093 727.613 815.09 727.856 814.97 728.23L803.7 728.22C802.31 727.03 802.84 725.83 802.73 724.46C802.49 721.527 802.6 718.556 803.06 715.55Z" fill="#FFC0C0"/>
<path d="M833.523 734.427C833.481 734.47 833.43 734.504 833.375 734.528C833.319 734.551 833.259 734.563 833.199 734.563C833.138 734.564 833.078 734.552 833.022 734.529C832.967 734.506 832.916 734.472 832.873 734.43L826.302 727.905C826.259 727.862 826.225 727.812 826.202 727.756C826.179 727.7 826.166 727.64 826.166 727.58C826.166 727.52 826.178 727.46 826.201 727.404C826.224 727.348 826.257 727.297 826.3 727.254L832.797 720.712C832.839 720.669 832.89 720.635 832.945 720.612C833.001 720.588 833.061 720.576 833.121 720.576C833.182 720.576 833.242 720.588 833.298 720.611C833.354 720.633 833.404 720.667 833.447 720.71L840.018 727.235C840.061 727.277 840.095 727.328 840.118 727.384C840.141 727.439 840.153 727.499 840.154 727.56C840.154 727.62 840.142 727.68 840.119 727.736C840.096 727.792 840.063 727.842 840.02 727.885L833.523 734.427ZM833.19 733.08L838.31 728.35C838.597 728.083 838.543 727.94 838.15 727.92L832.74 727.64C831.333 727.766 830.27 727.736 829.55 727.55C827.83 727.103 827.567 727.536 828.76 728.85C829.72 729.916 831.197 731.326 833.19 733.08Z" fill="#F3B3A4"/>
<path d="M771.961 735.157C771.863 735.255 771.731 735.31 771.593 735.31C771.456 735.31 771.323 735.256 771.226 735.158L764.723 728.678C764.675 728.63 764.636 728.573 764.61 728.51C764.584 728.447 764.57 728.379 764.57 728.311C764.57 728.243 764.583 728.175 764.609 728.112C764.635 728.049 764.673 727.991 764.722 727.943L771.159 721.483C771.257 721.385 771.389 721.33 771.527 721.33C771.664 721.33 771.797 721.384 771.894 721.482L778.397 727.962C778.445 728.01 778.484 728.067 778.51 728.13C778.536 728.193 778.55 728.261 778.55 728.329C778.55 728.397 778.537 728.465 778.511 728.528C778.485 728.591 778.447 728.649 778.398 728.697L771.961 735.157ZM767.29 728.36C766.917 728.207 766.603 728.183 766.35 728.29C766.293 728.314 766.243 728.352 766.205 728.4C766.167 728.448 766.141 728.505 766.13 728.565C766.119 728.626 766.123 728.688 766.142 728.747C766.162 728.805 766.195 728.858 766.24 728.9L771.63 733.96C773.55 732 774.993 730.573 775.96 729.68C777.48 728.273 777.26 727.9 775.3 728.56C774.82 728.72 774.077 728.68 773.07 728.44C771.14 727.99 769.23 728.31 767.29 728.36Z" fill="#F3B3A4"/>
<path d="M832.74 727.64L833.19 733.08C831.197 731.327 829.72 729.917 828.76 728.85C827.567 727.537 827.83 727.103 829.55 727.55C830.27 727.737 831.333 727.767 832.74 727.64Z" fill="#984646"/>
<path d="M833.19 733.08L832.74 727.64L838.15 727.92C838.543 727.94 838.597 728.083 838.31 728.35L833.19 733.08Z" fill="#FF5C5D"/>
<path d="M771.63 733.96L771.45 729.12C771.437 728.753 771.247 728.563 770.88 728.55L767.29 728.36C769.23 728.31 771.14 727.99 773.07 728.44C774.077 728.68 774.82 728.72 775.3 728.56C777.26 727.9 777.48 728.273 775.96 729.68C774.993 730.573 773.55 732 771.63 733.96Z" fill="#FF5C5D"/>
<path d="M802.59 728.49L802.98 740.76C802.767 741.167 802.48 741.207 802.12 740.88C799.827 738.78 795.683 734.657 789.69 728.51C793.997 728.017 798.297 728.01 802.59 728.49Z" fill="#984646"/>
<path d="M767.29 728.36L770.88 728.55C771.247 728.564 771.437 728.754 771.45 729.12L771.63 733.96L766.24 728.9C766.195 728.858 766.162 728.805 766.142 728.747C766.123 728.688 766.119 728.626 766.13 728.565C766.141 728.505 766.167 728.448 766.205 728.4C766.243 728.352 766.293 728.314 766.35 728.29C766.603 728.184 766.917 728.207 767.29 728.36Z" fill="#984646"/>
<path d="M803.7 728.22L814.97 728.23C815.243 728.343 815.38 728.513 815.38 728.74C815.38 728.893 815.287 729.057 815.1 729.23C811.413 732.583 807.867 736.08 804.46 739.72C804.153 740.047 803.66 740.394 802.98 740.76L802.59 728.49C802.69 728.21 803.06 728.12 803.7 728.22Z" fill="#FF5C5D"/>
<path d="M817.21 761.3C819.423 763.706 819.443 765.653 817.27 767.14C808.857 769.206 802.973 770.696 799.62 771.61C795.427 772.756 790.947 774.286 786.18 776.2C784.473 775.173 783.6 773.543 783.56 771.31C783.56 770.976 783.717 770.753 784.03 770.64C785.223 770.233 785.973 769.783 786.28 769.29L817.21 761.3Z" fill="#424E51"/>
<path d="M817.27 767.14C816.81 770.053 816.86 773.03 817.42 776.07L786.23 783.81L786.18 776.2C790.947 774.287 795.427 772.757 799.62 771.61C802.973 770.697 808.857 769.207 817.27 767.14Z" fill="#30393C"/>
<path d="M817.42 776.07C819.267 778.676 819.237 780.597 817.33 781.83C810.77 783.277 805.243 784.666 800.75 786C798.19 786.76 793.323 788.31 786.15 790.65C785.917 790.497 785.5 790.13 784.9 789.55C784 788.68 783.69 787.4 783.5 786.26C783.475 786.104 783.482 785.944 783.522 785.791C783.563 785.638 783.635 785.495 783.734 785.371C783.833 785.248 783.956 785.146 784.097 785.074C784.238 785.001 784.392 784.959 784.55 784.95C785.59 784.896 786.15 784.516 786.23 783.81L817.42 776.07Z" fill="#49585C"/>
<path d="M817.33 781.83C816.863 785.023 816.903 787.983 817.45 790.71C815.877 791.423 814.193 791.937 812.4 792.25C809.773 792.71 808.057 793.053 807.25 793.28C801.163 794.987 795.04 796.583 788.88 798.07C788.567 798.143 788.16 798.313 787.66 798.58C786.873 799 786.387 798.907 786.2 798.3L786.15 790.65C793.323 788.31 798.19 786.76 800.75 786C805.243 784.667 810.77 783.277 817.33 781.83Z" fill="#333F42"/>
<path d="M817.45 790.71C819.33 793.423 819.287 795.333 817.32 796.44C804.48 799.667 795.453 802.02 790.24 803.5C788.94 803.867 787.613 804.66 786.26 805.88C784.92 803.96 782.89 803.08 783.79 800.32C783.89 800 784.093 799.777 784.4 799.65C785.193 799.317 785.793 798.867 786.2 798.3C786.387 798.907 786.873 799 787.66 798.58C788.16 798.313 788.567 798.143 788.88 798.07C795.04 796.583 801.163 794.987 807.25 793.28C808.057 793.053 809.773 792.71 812.4 792.25C814.193 791.937 815.877 791.423 817.45 790.71Z" fill="#4D5E63"/>
<path d="M817.32 796.44L817.41 805.19C807.303 807.67 797.333 810.4 787.5 813.38C787.247 813.453 786.833 813.433 786.26 813.32V805.88C787.613 804.66 788.94 803.867 790.24 803.5C795.453 802.02 804.48 799.667 817.32 796.44Z" fill="#333F42"/>
<path d="M817.41 805.19C819.357 808.217 819.323 810.083 817.31 810.79C807.603 813.61 798.003 816.107 788.51 818.28C787.93 818.413 787.487 818.663 787.18 819.03C786.74 819.543 786.507 820.033 786.48 820.5C784.593 819.1 783.613 817.423 783.54 815.47C783.527 815.13 783.65 814.85 783.91 814.63C784.59 814.07 785.373 813.633 786.26 813.32C786.833 813.433 787.247 813.453 787.5 813.38C797.333 810.4 807.303 807.67 817.41 805.19Z" fill="#4D5E63"/>
<path d="M817.31 810.79C816.877 814.497 816.933 817.553 817.48 819.96L786.38 828L786.48 820.5C786.507 820.033 786.74 819.543 787.18 819.03C787.487 818.663 787.93 818.413 788.51 818.28C798.003 816.107 807.603 813.61 817.31 810.79Z" fill="#333F42"/>
<path d="M817.48 819.96C819.347 822.38 819.29 824.317 817.31 825.77C815.097 826.037 812.943 826.49 810.85 827.13C807.69 828.103 805.587 828.71 804.54 828.95C798.313 830.377 792.177 832.08 786.13 834.06C784.45 833.853 783.59 832.503 783.55 830.01C783.55 829.853 783.592 829.699 783.671 829.565C783.751 829.431 783.864 829.323 784 829.25L786.38 828L817.48 819.96Z" fill="#4D5E63"/>
<path d="M817.31 825.77C816.81 829.037 816.883 832.057 817.53 834.83C807.35 836.977 797.26 839.57 787.26 842.61C787.06 842.67 786.71 842.553 786.21 842.26L786.13 834.06C792.177 832.08 798.313 830.377 804.54 828.95C805.587 828.71 807.69 828.103 810.85 827.13C812.943 826.49 815.097 826.037 817.31 825.77Z" fill="#333F42"/>
<path d="M817.53 834.83C818.557 835.977 818.943 837.283 818.69 838.75C818.631 839.069 818.474 839.359 818.24 839.58C817.693 840.093 817.303 840.65 817.07 841.25C816.91 840.597 816.467 840.373 815.74 840.58C804.327 843.727 795.407 846.013 788.98 847.44C787.813 847.693 786.933 848.48 786.34 849.8C786.173 849.147 785.737 848.637 785.03 848.27C784.751 848.134 784.52 847.91 784.37 847.63C783.817 846.59 783.517 845.507 783.47 844.38C783.457 844.007 783.627 843.757 783.98 843.63C784.393 843.483 784.993 843.307 785.78 843.1C786.26 842.973 786.403 842.693 786.21 842.26C786.71 842.553 787.06 842.67 787.26 842.61C797.26 839.57 807.35 836.977 817.53 834.83Z" fill="#49585C"/>
<path d="M817.07 841.25C817.07 841.363 817.07 841.473 817.07 841.58L817.22 848.89C814.84 849.86 812.72 850.84 810.18 851.42C803.007 853.073 795.837 854.75 788.67 856.45C788.657 856.457 788.287 856.593 787.56 856.86C787.013 857.06 786.593 856.957 786.3 856.55L786.34 849.8C786.933 848.48 787.813 847.693 788.98 847.44C795.407 846.013 804.327 843.727 815.74 840.58C816.467 840.373 816.91 840.597 817.07 841.25Z" fill="#30393C"/>
<path d="M817.22 848.89C818.24 850.21 818.747 851.577 818.74 852.99C818.74 853.33 818.623 853.627 818.39 853.88L817.15 855.23C808.157 857.443 799.193 859.643 790.26 861.83C788.38 862.29 787.063 862.943 786.31 863.79C785.79 863.297 785.14 862.89 784.36 862.57C783.813 861.403 783.537 860.203 783.53 858.97C783.523 858.583 783.703 858.333 784.07 858.22L785.38 857.79C785.74 857.677 786 857.447 786.16 857.1C786.24 856.927 786.287 856.743 786.3 856.55C786.593 856.957 787.013 857.06 787.56 856.86C788.287 856.593 788.657 856.457 788.67 856.45C795.837 854.75 803.007 853.073 810.18 851.42C812.72 850.84 814.84 849.86 817.22 848.89Z" fill="#424E51"/>
<path d="M817.15 855.23L817.05 871.17C817.043 871.61 817.173 872.007 817.44 872.36C818.807 874.207 820.233 876.08 821.72 877.98C822.96 879.57 823.25 880.82 822.99 882.72C822.975 882.84 822.983 882.961 823.015 883.077C823.047 883.194 823.102 883.302 823.177 883.397C823.251 883.492 823.344 883.571 823.449 883.63C823.554 883.689 823.67 883.726 823.79 883.74C825.27 883.9 826.47 884.24 827.48 885.5C829.047 887.46 830.537 889.403 831.95 891.33C832.048 891.466 832.101 891.629 832.099 891.797C832.097 891.964 832.041 892.127 831.94 892.26L817.4 911.18C817.263 911.357 817.087 911.501 816.886 911.599C816.685 911.698 816.464 911.75 816.24 911.75H786.71C786.558 911.75 786.407 911.715 786.27 911.648C786.133 911.58 786.013 911.482 785.92 911.36C783.087 907.68 780.247 903.97 777.4 900.23C776.59 899.17 776.7 898.1 776.71 896.87C776.71 896.477 776.517 896.3 776.13 896.34L775.12 896.44C774.72 896.48 774.397 896.343 774.15 896.03L771.24 892.32C771.123 892.172 771.06 891.989 771.06 891.8C771.06 891.611 771.123 891.428 771.24 891.28L785.68 872.52C786.031 872.059 786.223 871.498 786.23 870.92L786.31 863.79C787.063 862.943 788.38 862.29 790.26 861.83C799.193 859.643 808.157 857.443 817.15 855.23ZM801.867 881.453C801.774 881.36 801.647 881.307 801.514 881.306C801.381 881.306 801.254 881.359 801.16 881.452L791.244 891.334C791.15 891.428 791.097 891.555 791.096 891.688C791.096 891.82 791.149 891.948 791.242 892.042L801.153 901.987C801.246 902.08 801.373 902.133 801.506 902.134C801.639 902.134 801.766 902.081 801.86 901.988L811.776 892.106C811.87 892.012 811.923 891.885 811.924 891.752C811.924 891.62 811.871 891.492 811.778 891.398L801.867 881.453Z" fill="#282F2E"/>
<path d="M811.778 891.398C811.871 891.492 811.924 891.62 811.924 891.752C811.923 891.885 811.87 892.012 811.776 892.105L801.86 901.988C801.766 902.081 801.639 902.134 801.506 902.133C801.373 902.133 801.246 902.08 801.153 901.986L791.242 892.041C791.149 891.947 791.096 891.82 791.096 891.688C791.097 891.555 791.15 891.428 791.244 891.334L801.16 881.452C801.254 881.358 801.381 881.306 801.514 881.306C801.647 881.306 801.774 881.359 801.867 881.453L811.778 891.398ZM800.79 899.55C801.03 899.856 801.367 899.99 801.8 899.95C802.093 899.923 802.39 899.77 802.69 899.49C805.117 897.23 807.427 894.853 809.62 892.36C809.658 892.315 809.682 892.261 809.69 892.203C809.698 892.145 809.69 892.086 809.666 892.032C809.642 891.979 809.603 891.933 809.554 891.901C809.505 891.869 809.449 891.851 809.39 891.85L797.71 891.82L795.07 891.65C793.583 891.55 793.363 892.03 794.41 893.09L800.79 899.55Z" fill="#F3B3A4"/>
<path d="M797.71 891.82L800.77 891.96C800.883 891.966 800.994 891.995 801.095 892.046C801.196 892.097 801.285 892.169 801.356 892.257C801.428 892.344 801.48 892.446 801.51 892.555C801.54 892.664 801.547 892.778 801.53 892.89C801.223 894.903 801.327 896.933 801.84 898.98C801.927 899.327 801.797 899.543 801.45 899.63C801.263 899.677 801.043 899.65 800.79 899.55L794.41 893.09C793.363 892.03 793.583 891.55 795.07 891.65L797.71 891.82Z" fill="#984646"/>
<path d="M797.71 891.82L809.39 891.85C809.449 891.851 809.505 891.869 809.554 891.901C809.603 891.933 809.642 891.979 809.666 892.032C809.69 892.086 809.698 892.145 809.69 892.203C809.682 892.261 809.658 892.315 809.62 892.36C807.427 894.853 805.117 897.23 802.69 899.49C802.39 899.77 802.093 899.923 801.8 899.95C801.367 899.99 801.03 899.856 800.79 899.55C801.043 899.65 801.263 899.676 801.45 899.63C801.797 899.543 801.927 899.326 801.84 898.98C801.327 896.933 801.223 894.903 801.53 892.89C801.547 892.778 801.54 892.664 801.51 892.555C801.48 892.445 801.428 892.344 801.356 892.256C801.285 892.169 801.196 892.097 801.095 892.046C800.994 891.995 800.883 891.966 800.77 891.96L797.71 891.82Z" fill="#FF5C5D"/>
</svg>
