<svg width="147" height="20" viewBox="0 0 147 20" fill="none" xmlns="http://www.w3.org/2000/svg">
<g clip-path="url(#clip0_271_77)">
<path fill-rule="evenodd" clip-rule="evenodd" d="M15.1982 0.876465C11.1828 0.876465 8.6731 2.88419 7.66924 6.89963C9.17503 4.89191 10.9318 4.13901 12.9395 4.64094C14.085 4.92704 14.9037 5.75857 15.81 6.67822C17.2862 8.17676 18.995 9.91121 22.7271 9.91121C26.7426 9.91121 29.2522 7.90349 30.2561 3.88805C28.7503 5.89577 26.9935 6.64866 24.9858 6.14673C23.8403 5.86063 23.0216 5.0291 22.1153 4.10945C20.6391 2.61091 18.9303 0.876465 15.1982 0.876465ZM7.66924 9.91121C3.6538 9.91121 1.14415 11.9189 0.140289 15.9344C1.64608 13.9266 3.40283 13.1738 5.41055 13.6757C6.55607 13.9623 7.37477 14.7933 8.28104 15.713C9.75727 17.2115 11.4661 18.9459 15.1982 18.9459C19.2136 18.9459 21.7233 16.9382 22.7271 12.9228C21.2214 14.9305 19.4646 15.6834 17.4569 15.1815C16.3114 14.8954 15.4927 14.0638 14.5864 13.1442C13.1102 11.6457 11.4014 9.91121 7.66924 9.91121Z" fill="#38BDF8"/>
<path fill-rule="evenodd" clip-rule="evenodd" d="M45.3118 8.48997H42.6839V13.5762C42.6839 14.9325 43.574 14.9113 45.3118 14.8266V16.8822C41.7938 17.3061 40.3951 16.3312 40.3951 13.5762V8.48997H38.4454V6.28592H40.3951V3.43942L42.6839 2.76125V6.28592H45.3118V8.48997ZM55.3292 6.28592H57.618V16.8822H55.3292V15.3564C54.5238 16.4796 53.2735 17.1577 51.6205 17.1577C48.7383 17.1577 46.3435 14.7206 46.3435 11.5841C46.3435 8.42639 48.7383 6.01041 51.6205 6.01041C53.2735 6.01041 54.5238 6.6886 55.3292 7.79062V6.28592ZM51.9807 14.9749C53.8881 14.9749 55.3292 13.555 55.3292 11.5841C55.3292 9.61318 53.8881 8.19327 51.9807 8.19327C50.0734 8.19327 48.6323 9.61318 48.6323 11.5841C48.6323 13.555 50.0734 14.9749 51.9807 14.9749ZM61.4326 4.69647C60.6273 4.69647 59.9703 4.01831 59.9703 3.23418C59.9709 2.84659 60.1254 2.47508 60.3992 2.20101C60.6736 1.92693 61.045 1.77263 61.4326 1.77189C61.8202 1.77263 62.1917 1.92693 62.4661 2.20101C62.7399 2.47508 62.8944 2.84659 62.8949 3.23418C62.8949 4.01831 62.238 4.69647 61.4326 4.69647ZM60.2882 16.8822V6.28592H62.577V16.8822H60.2882ZM65.2261 16.8822V1.41162H67.5149V16.8822H65.2261ZM82.3709 6.28592H84.7869L81.4596 16.8822H79.2132L77.0092 9.74033L74.784 16.8822H72.5376L69.2103 6.28592H71.6263L73.682 13.5974L75.9072 6.28592H78.09L80.2941 13.5974L82.3709 6.28592ZM87.6267 4.69647C86.8214 4.69647 86.1644 4.01831 86.1644 3.23418C86.165 2.84659 86.3194 2.47508 86.5933 2.20101C86.8677 1.92693 87.2391 1.77263 87.6267 1.77189C88.0143 1.77263 88.3857 1.92693 88.6601 2.20101C88.9339 2.47508 89.0884 2.84659 89.089 3.23418C89.089 4.01831 88.432 4.69647 87.6267 4.69647ZM86.4823 16.8822V6.28592H88.7711V16.8822H86.4823ZM96.9938 6.01041C99.3674 6.01041 101.063 7.62107 101.063 10.3761V16.8822H98.774V10.6092C98.774 8.99859 97.8415 8.15089 96.4004 8.15089C94.8958 8.15089 93.709 9.04098 93.709 11.2026V16.8822H91.4202V6.28592H93.709V7.64227C94.4083 6.54025 95.5527 6.01041 96.9938 6.01041ZM111.913 2.0474H114.202V16.8822H111.913V15.3564C111.108 16.4796 109.858 17.1577 108.205 17.1577C105.323 17.1577 102.928 14.7206 102.928 11.5841C102.928 8.42639 105.323 6.01041 108.205 6.01041C109.858 6.01041 111.108 6.6886 111.913 7.79062V2.0474ZM108.565 14.9749C110.472 14.9749 111.913 13.555 111.913 11.5841C111.913 9.61318 110.472 8.19327 108.565 8.19327C106.658 8.19327 105.217 9.61318 105.217 11.5841C105.217 13.555 106.658 14.9749 108.565 14.9749ZM121.874 17.1577C118.674 17.1577 116.279 14.7206 116.279 11.5841C116.279 8.42639 118.674 6.01041 121.874 6.01041C123.951 6.01041 125.752 7.09126 126.6 8.74428L124.629 9.88868C124.163 8.89263 123.124 8.25685 121.853 8.25685C119.988 8.25685 118.568 9.67676 118.568 11.5841C118.568 13.4914 119.988 14.9113 121.853 14.9113C123.124 14.9113 124.163 14.2544 124.671 13.2795L126.642 14.4027C125.752 16.0769 123.951 17.1577 121.874 17.1577ZM130.415 9.21052C130.415 11.139 136.115 9.97345 136.115 13.8941C136.115 16.0133 134.272 17.1577 131.983 17.1577C129.864 17.1577 128.338 16.2041 127.66 14.6782L129.63 13.5338C129.97 14.4875 130.817 15.0597 131.983 15.0597C133 15.0597 133.784 14.7206 133.784 13.8729C133.784 11.9868 128.083 13.0464 128.083 9.2529C128.083 7.2608 129.8 6.01041 131.962 6.01041C133.699 6.01041 135.14 6.81576 135.882 8.21447L133.954 9.29529C133.572 8.46878 132.831 8.08731 131.962 8.08731C131.135 8.08731 130.415 8.44759 130.415 9.21052ZM140.184 9.21052C140.184 11.139 145.885 9.97345 145.885 13.8941C145.885 16.0133 144.041 17.1577 141.753 17.1577C139.633 17.1577 138.107 16.2041 137.429 14.6782L139.4 13.5338C139.739 14.4875 140.587 15.0597 141.753 15.0597C142.77 15.0597 143.554 14.7206 143.554 13.8729C143.554 11.9868 137.853 13.0464 137.853 9.2529C137.853 7.2608 139.57 6.01041 141.731 6.01041C143.469 6.01041 144.91 6.81576 145.652 8.21447L143.724 9.29529C143.342 8.46878 142.6 8.08731 141.731 8.08731C140.905 8.08731 140.184 8.44759 140.184 9.21052Z" fill="white"/>
</g>
<defs>
<clipPath id="clip0_271_77">
<rect width="146.117" height="18.4041" fill="white" transform="translate(0.140289 0.876465)"/>
</clipPath>
</defs>
</svg>
